<?xml version="1.0" encoding="UTF-8" standalone="no"?><svg xmlns="http://www.w3.org/2000/svg" xmlns:xlink="http://www.w3.org/1999/xlink" fill="#000000" height="500" preserveAspectRatio="xMidYMid meet" version="1" viewBox="0.0 0.0 500.0 500.0" width="500" zoomAndPan="magnify"><g id="change1_1"><path d="M483.201,175.116c1.6,1.177,3.194,2.36,4.769,3.551c0.842,0.733,1.647,1.482,2.433,2.238 c0.031,0.109,0.066,0.218,0.097,0.327C488.016,179.2,485.556,177.167,483.201,175.116z M110.541,42.314 c-0.136,0.092-0.275,0.181-0.411,0.273c-0.35,0.734-0.692,1.476-1.021,2.237c-0.72,2.07-1.422,4.164-2.118,6.264 C108.212,48.23,109.381,45.281,110.541,42.314z M392.112,52.283c-2.747,0.002-5.544,0.078-8.36,0.184 c3.807,0.097,7.679,0.11,11.539,0.141C394.223,52.509,393.164,52.4,392.112,52.283z M15.262,163.567 c-0.058,0.157-0.119,0.311-0.176,0.468c0.133,0.716,0.271,1.433,0.43,2.157c0.612,2.047,1.251,4.105,1.899,6.167 C16.76,169.453,16.019,166.513,15.262,163.567z M249.173,6.507c-2.193,1.606-4.388,3.301-6.587,5.029 c3.192-2.18,6.376-4.469,9.55-6.734C251.148,5.385,250.16,5.952,249.173,6.507z M205.662,34.154 c10.003-2.057,19.731-9.079,29.344-16.626c2.367-1.992,4.735-3.889,7.111-5.623c0.157-0.123,0.313-0.247,0.469-0.37 c-8.999,6.146-18.06,11.42-27.139,12.812c-14.651,2.245-32.281-5.165-48.928-10.225c-8.061,2.855-15.933,6.108-23.589,9.743 C162.925,25.845,187.195,37.951,205.662,34.154z M480.929,173.099c-2.256-1.641-4.597-3.245-6.968-4.832 c3.012,2.293,6.134,4.563,9.241,6.849C482.432,174.446,481.675,173.774,480.929,173.099z M476.065,308.222 c0.825,2.078,1.598,4.142,2.294,6.187c0.274,0.742,0.547,1.483,0.817,2.223c-3.104-10.515-5.387-20.773-3.918-29.764 c2.265-13.867,14.77-28.004,24.741-42.35c-0.187-8.711-0.816-17.313-1.871-25.783c-8.022,18.874-27.183,37.994-29.171,55.789 C467.813,284.776,471.726,296.455,476.065,308.222z M18.088,175.491c0.843,2.604,1.771,5.234,2.735,7.876 c-1.078-3.652-2.254-7.335-3.409-11.007C17.65,173.408,17.875,174.452,18.088,175.491z M340.936,49.281 c9.226,4.193,21.393,4.07,33.831,3.562c2.263-0.15,4.496-0.251,6.689-0.285c0.766-0.032,1.532-0.063,2.296-0.092 c-10.862-0.278-21.188-1.255-29.138-5.367c-12.672-6.554-22.353-22.886-32.898-36.818c-8.145-2.435-16.463-4.466-24.934-6.07 C312.082,17.67,324.423,41.776,340.936,49.281z M404.504,53.274c-0.132-0.104-0.266-0.206-0.398-0.31 c-0.759-0.099-1.523-0.193-2.299-0.267c-2.159-0.048-4.334-0.073-6.516-0.09C398.315,52.884,401.404,53.086,404.504,53.274z M23.934,191.778c-0.825-2.078-1.598-4.142-2.294-6.187c-0.274-0.742-0.547-1.483-0.817-2.224 c3.104,10.515,5.387,20.773,3.918,29.764C22.477,226.999,9.972,241.136,0,255.481c0.187,8.711,0.816,17.313,1.871,25.783 c8.022-18.874,27.183-37.994,29.171-55.789C32.187,215.224,28.274,203.545,23.934,191.778z M467.25,163.829 c1.254,0.828,2.513,1.657,3.771,2.487c0.983,0.649,1.964,1.299,2.94,1.952c-8.527-6.49-16.172-13.165-20.065-20.909 c-6.536-13.001-4.915-31.95-5.274-49.35c-5.199-6.79-10.734-13.308-16.588-19.523c4.381,19.725,0.366,46.487,9.512,62.593 C446.525,149.846,456.682,156.85,467.25,163.829z M105.7,54.024c-0.847,2.631-1.638,5.33-2.406,8.055 c1.268-3.605,2.475-7.304,3.697-10.991C106.568,52.078,106.137,53.056,105.7,54.024z M259.857,0.033 c-0.236-0.009-0.472-0.018-0.708-0.027c-0.297,0.163-0.595,0.319-0.892,0.49c-2.036,1.403-4.076,2.846-6.121,4.305 C254.712,3.281,257.285,1.666,259.857,0.033z M87.314,101.424c6.675-7.328,10.248-18.724,13.545-30.556 c0.579-2.313,1.2-4.579,1.876-6.785c0.186-0.669,0.372-1.338,0.559-2.005c-3.558,10.118-7.599,19.482-13.825,25.657 c-10.235,10.153-28.78,14.398-45.268,20.132c-4.868,7.042-9.39,14.341-13.529,21.881C48.143,119.371,74.949,114.999,87.314,101.424z M382.773,218.472c3.063,12.954-14.847,27.769-15.914,41.037c-1.056,13.137,14.288,30.644,9.106,43.066 c-5.001,11.985-28.098,13.436-37.011,23.823c-8.913,10.387-6.848,33.447-17.933,40.207c-11.488,7.006-31.11-5.517-43.93-2.483 c-12.948,3.064-24.874,23.019-38.137,21.952c-13.131-1.057-21.687-22.611-34.103-27.796c-11.98-5.003-33.35,4.219-43.732-4.698 c-10.382-8.917-4.507-31.446-11.264-42.535c-7.003-11.493-29.595-16.691-32.628-29.516c-3.063-12.954,14.847-27.769,15.914-41.037 c1.056-13.137-14.288-30.644-9.106-43.065c5.001-11.985,28.098-13.436,37.011-23.823c8.913-10.387,6.848-33.447,17.933-40.207 c11.488-7.006,31.11,5.517,43.93,2.483c12.948-3.064,24.874-23.019,38.137-21.951c13.131,1.057,21.687,22.611,34.103,27.796 c11.98,5.003,33.35-4.219,43.732,4.698c10.382,8.917,4.507,31.446,11.264,42.535C357.148,200.448,379.74,205.646,382.773,218.472z M340.374,188.424c-6.816-10.007-2.407-31.264-12.496-39.076c-10.089-7.813-29.553,1.784-40.945-2.308 c-11.807-4.242-20.792-23.909-33.069-24.272c-12.4-0.367-22.564,18.778-34.477,22.243c-11.795,3.431-30.658-7.303-41.025-0.237 c-10.003,6.818-6.992,28.195-14.801,38.288c-7.81,10.093-29.249,12.536-33.34,23.932c-4.24,11.812,10.876,27.39,10.512,39.673 c-0.367,12.406-16.346,27.048-12.882,38.966c3.429,11.8,24.713,15.573,31.776,25.944c6.816,10.007,2.407,31.264,12.496,39.077 c10.089,7.813,29.553-1.784,40.945,2.308c11.807,4.242,20.792,23.909,33.069,24.272c12.4,0.367,22.564-18.778,34.477-22.243 c11.795-3.431,30.658,7.303,41.025,0.237c10.003-6.819,6.992-28.195,14.801-38.288c7.81-10.094,29.249-12.536,33.34-23.932 c4.24-11.812-10.876-27.39-10.512-39.673c0.367-12.406,16.346-27.048,12.882-38.966 C368.721,202.568,347.438,198.795,340.374,188.424z M403.833,52.755c-0.066-0.002-0.13-0.007-0.196-0.009 c0.079,0.015,0.161,0.027,0.239,0.042C403.862,52.777,403.847,52.766,403.833,52.755z M490.261,180.428 c-0.114-0.089-0.225-0.178-0.34-0.267c0.122,0.129,0.253,0.257,0.375,0.386C490.285,180.507,490.272,180.467,490.261,180.428z M267.176,230.787c1.871,1.677,0.693,5.905,1.958,8.077c1.253,2.15,5.518,3.207,6.054,5.691c0.517,2.397-2.906,5.114-3.167,7.685 c-0.261,2.571,2.545,5.922,1.556,8.166c-1.025,2.325-5.416,2.502-7.075,4.356c-1.676,1.872-1.373,6.251-3.543,7.517 c-2.149,1.253-5.799-1.164-8.282-0.627c-2.396,0.517-4.713,4.253-7.283,3.991s-4.089-4.387-6.331-5.376 c-2.324-1.025-6.386,0.607-8.238-1.053c-1.871-1.677-0.693-5.905-1.958-8.077c-1.253-2.15-5.518-3.207-6.054-5.691 c-0.517-2.397,2.906-5.114,3.167-7.685s-2.545-5.922-1.556-8.166c1.025-2.325,5.416-2.502,7.075-4.356 c1.676-1.872,1.373-6.251,3.543-7.517c2.149-1.253,5.799,1.164,8.282,0.627c2.396-0.517,4.713-4.252,7.283-3.991 c2.57,0.261,4.089,4.387,6.331,5.376C261.262,230.759,265.323,229.127,267.176,230.787z M264.192,250.72 c0.084-1.657,2.19-3.511,1.781-5.03c-0.424-1.575-3.193-2.114-4.066-3.452c-0.882-1.351-0.264-4.1-1.518-5.115 c-1.242-1.004-3.793,0.174-5.316-0.407c-1.47-0.561-2.578-3.157-4.234-3.241c-1.656-0.084-3.021,2.386-4.54,2.796 c-1.575,0.425-3.993-1.006-5.33-0.133c-1.35,0.882-1.014,3.68-2.027,4.935c-1.004,1.242-3.813,1.498-4.395,3.023 c-0.561,1.471,1.347,3.528,1.263,5.185c-0.084,1.657-2.19,3.511-1.781,5.03c0.424,1.575,3.193,2.114,4.066,3.452 c0.882,1.351,0.264,4.1,1.518,5.115c1.242,1.004,3.793-0.174,5.316,0.407c1.47,0.561,2.578,3.157,4.234,3.241 c1.656,0.084,3.021-2.386,4.54-2.796c1.575-0.425,3.993,1.006,5.33,0.133c1.35-0.882,1.014-3.68,2.027-4.935 c1.004-1.242,3.813-1.498,4.395-3.023C266.016,254.434,264.108,252.377,264.192,250.72z M256.959,247.738 c-0.223-0.686-1.458-0.862-1.874-1.434c-0.42-0.577-0.208-1.805-0.785-2.225c-0.571-0.416-1.671,0.162-2.357-0.061 c-0.662-0.215-1.209-1.337-1.943-1.337s-1.281,1.122-1.943,1.337c-0.686,0.223-1.786-0.355-2.357,0.061 c-0.577,0.42-0.365,1.648-0.785,2.225c-0.416,0.571-1.651,0.747-1.873,1.434c-0.215,0.662,0.674,1.528,0.674,2.262 c0,0.734-0.889,1.6-0.674,2.262c0.223,0.686,1.458,0.862,1.873,1.434c0.42,0.577,0.208,1.805,0.785,2.225 c0.571,0.416,1.671-0.162,2.357,0.061c0.662,0.215,1.209,1.337,1.943,1.337s1.281-1.122,1.943-1.337 c0.686-0.223,1.786,0.355,2.357-0.061c0.577-0.42,0.365-1.648,0.785-2.225c0.416-0.571,1.651-0.747,1.874-1.434 c0.215-0.662-0.674-1.528-0.674-2.262C256.285,249.266,257.174,248.4,256.959,247.738z M9.5,318.768 c0.031,0.11,0.066,0.218,0.097,0.327c0.786,0.756,1.591,1.504,2.433,2.238c1.574,1.191,3.168,2.373,4.768,3.55 C14.444,322.833,11.983,320.8,9.5,318.768z M485.026,335.647c-0.004-0.014-0.008-0.028-0.012-0.043 c0.002,0.018,0.006,0.037,0.008,0.055C485.023,335.655,485.025,335.651,485.026,335.647z M258.98,0 c-0.019,0.013-0.038,0.026-0.057,0.039c0.027-0.012,0.053-0.025,0.08-0.038C258.995,0.001,258.988,0,258.98,0z M96.167,447.245 c0.066,0.002,0.13,0.007,0.196,0.009c-0.079-0.015-0.161-0.027-0.239-0.042C96.138,447.223,96.153,447.234,96.167,447.245z M241.02,500c0.019-0.013,0.038-0.026,0.057-0.039c-0.027,0.012-0.053,0.025-0.08,0.038C241.005,499.999,241.012,500,241.02,500z M390.165,457.21c0.047-0.132,0.099-0.259,0.146-0.391c-0.082,0.15-0.16,0.307-0.242,0.458 C390.1,457.255,390.132,457.232,390.165,457.21z M9.739,319.572c0.114,0.089,0.226,0.178,0.34,0.267 c-0.122-0.129-0.253-0.257-0.375-0.386C9.715,319.493,9.728,319.533,9.739,319.572z M109.835,42.79 c-0.047,0.132-0.098,0.259-0.146,0.391c0.082-0.15,0.16-0.308,0.242-0.458C109.9,42.745,109.868,42.768,109.835,42.79z M14.974,164.353c0.004,0.014,0.008,0.028,0.012,0.043c-0.002-0.018-0.006-0.037-0.008-0.055 C14.977,164.345,14.975,164.349,14.974,164.353z M403.569,229.648c1.972,14.981-19.956,29.656-22.684,44.518 c-2.701,14.715,12.619,36.25,5.34,49.683c-7.023,12.961-33.275,11.945-44.534,22.652c-11.258,10.707-11.574,36.987-24.868,43.348 c-13.779,6.593-34.501-9.805-49.328-7.851c-14.975,1.973-30.735,23.139-45.591,20.41c-14.709-2.702-21.898-28.028-35.325-35.31 c-12.955-7.026-38.149,0.933-48.851-10.33c-10.702-11.263-1.48-36.032-7.838-49.332c-6.59-13.785-31.508-22.25-33.461-37.084 c-1.972-14.981,19.956-29.656,22.684-44.518c2.701-14.715-12.619-36.25-5.34-49.683c7.023-12.961,33.275-11.945,44.534-22.652 c11.258-10.707,11.574-36.987,24.868-43.348c13.779-6.593,34.501,9.805,49.328,7.851c14.975-1.973,30.735-23.139,45.591-20.41 c14.709,2.702,21.898,28.028,35.325,35.31c12.955,7.026,38.149-0.934,48.851,10.33c10.702,11.263,1.48,36.032,7.838,49.332 C376.699,206.349,401.617,214.814,403.569,229.648z M360.077,190.33c-6.605-12.189,0.878-35.892-9.71-45.961 c-10.588-10.069-33.872-1.392-46.375-7.375c-12.958-6.2-20.916-29.644-34.86-31.481c-14.083-1.856-27.878,18.776-41.849,21.342 c-13.833,2.541-34.077-11.872-46.705-5.024c-12.184,6.608-11.229,31.307-21.293,41.9c-10.065,10.593-34.77,10.89-40.75,23.398 c-6.197,12.964,9.217,32.461,7.381,46.41c-1.855,14.089-21.752,28.917-19.186,42.894c2.54,13.839,26.348,20.603,33.193,33.236 c6.605,12.189-0.878,35.892,9.71,45.961c10.588,10.069,33.872,1.392,46.375,7.374c12.958,6.2,20.916,29.644,34.86,31.482 c14.083,1.855,27.878-18.776,41.849-21.342c13.833-2.541,34.077,11.872,46.705,5.024c12.184-6.608,11.229-31.307,21.293-41.9 c10.065-10.593,34.77-10.89,40.75-23.398c6.197-12.964-9.217-32.461-7.381-46.41c1.855-14.089,21.752-28.917,19.186-42.894 C390.73,209.727,366.923,202.963,360.077,190.33z M457.145,286.069c-3.531,20.203-37.888,30.294-47.458,48.432 c-9.474,17.959,1.619,52.076-13.263,66.513c-14.36,13.93-47.944,1.944-66.873,11.233c-18.929,9.289-30.011,43.195-49.811,46.029 c-20.522,2.937-40.699-26.722-60.693-30.22c-20.195-3.532-49.201,17.472-67.331,7.899c-17.951-9.479-16.975-45.199-31.406-60.088 c-13.924-14.366-49.783-14.299-59.068-33.236c-9.285-18.937,12.718-47.264,9.886-67.073c-2.936-20.53-31.767-41.623-28.272-61.627 c3.531-20.203,37.888-30.294,47.458-48.432c9.474-17.959-1.619-52.076,13.263-66.513c14.36-13.93,47.944-1.944,66.873-11.233 c18.929-9.289,30.011-43.195,49.811-46.029c20.522-2.937,40.699,26.723,60.693,30.22c20.195,3.532,49.201-17.472,67.331-7.899 c17.951,9.479,16.975,45.199,31.406,60.088c13.924,14.366,49.783,14.299,59.068,33.236c9.285,18.937-12.718,47.264-9.886,67.073 C431.809,244.972,460.641,266.065,457.145,286.069z M419.569,216.929c-3.663-18.778,15.976-46.894,6.193-64.527 c-9.783-17.633-44.022-15.831-58.013-28.875c-14.501-13.518-15.298-47.675-32.898-55.856c-17.776-8.263-44.458,13.199-63.912,10.805 c-19.262-2.371-39.965-29.715-59.419-25.916c-18.77,3.665-27.711,36.579-45.337,46.366c-17.626,9.787-50.276-0.032-63.314,13.966 c-13.512,14.507-1.268,46.548-9.446,64.156c-8.26,17.784-40.579,29.084-42.973,48.547c-2.37,19.271,26.183,38.015,29.98,57.478 c3.663,18.778-15.976,46.894-6.193,64.527c9.783,17.633,44.022,15.832,58.013,28.875c14.501,13.518,15.298,47.675,32.898,55.856 c17.776,8.263,44.458-13.199,63.912-10.805c19.262,2.371,39.965,29.715,59.419,25.916c18.77-3.665,27.711-36.579,45.337-46.366 c17.626-9.787,50.276,0.032,63.314-13.966c13.512-14.507,1.268-46.548,9.446-64.156c8.26-17.784,40.579-29.084,42.973-48.547 C451.919,255.136,423.366,236.391,419.569,216.929z M409.983,210.289c4.558,18.362,32.671,34.843,31.344,53.32 c-1.341,18.662-31.592,30.992-38.603,48.337c-6.942,17.174,6.273,47.113-5.902,61.59c-11.747,13.968-43.334,6.191-59.656,16.369 c-16.322,10.178-23.253,41.974-40.961,46.374c-18.354,4.56-39.402-20.495-57.872-21.823c-18.654-1.341-43.042,20.4-60.38,13.386 c-17.166-6.945-19.576-39.454-34.046-51.634c-13.962-11.753-46.501-8.38-56.675-24.71c-10.174-16.329,7.182-44.07,2.784-61.786 c-4.558-18.362-32.671-34.843-31.344-53.32c1.341-18.662,31.592-30.992,38.603-48.337c6.942-17.174-6.273-47.113,5.902-61.59 c11.747-13.969,43.334-6.191,59.656-16.369c16.322-10.178,23.252-41.974,40.961-46.374c18.354-4.56,39.402,20.495,57.872,21.823 c18.654,1.341,43.042-20.4,60.38-13.386c17.166,6.945,19.576,39.454,34.046,51.634c13.962,11.752,46.501,8.38,56.675,24.71 C422.941,164.831,405.585,192.572,409.983,210.289z M432.548,253.709c0.371-17.63-27.149-31.943-32.368-49.179 c-5.035-16.631,10.128-43.841-0.331-58.874c-10.459-15.033-41.231-10.258-55.071-20.758c-14.344-10.882-18.202-41.671-34.856-47.446 c-16.821-5.832-38.958,16.013-56.757,15.638c-17.622-0.371-38.84-23.176-56.069-17.955c-16.623,5.037-21.68,35.599-36.706,46.063 c-15.027,10.464-45.43,4.593-55.925,18.439c-10.877,14.35,3.13,42.176-2.642,58.837c-5.83,16.828-33.995,30.009-34.37,47.816 c-0.371,17.63,27.149,31.943,32.368,49.179c5.035,16.631-10.128,43.841,0.331,58.874c10.459,15.034,41.231,10.258,55.071,20.758 c14.344,10.882,18.202,41.671,34.856,47.446c16.821,5.832,38.958-16.013,56.757-15.638c17.622,0.372,38.84,23.176,56.069,17.955 c16.623-5.037,21.68-35.599,36.706-46.063c15.027-10.464,45.431-4.593,55.925-18.439c10.877-14.35-3.13-42.176,2.642-58.837 C404.007,284.697,432.172,271.516,432.548,253.709z M390.224,199.658c5.777,16.094,32.561,28.341,33.057,45.077 c0.5,16.903-25.574,30.757-30.293,46.995c-4.673,16.077,9.947,41.789,0.323,55.92c-9.286,13.635-38.399,9.531-52.145,20.176 c-13.746,10.645-17.072,39.869-32.593,45.445c-16.087,5.779-37.303-14.824-54.031-14.329c-16.896,0.5-36.837,22.281-53.068,17.559 c-16.07-4.675-21.208-33.685-35.333-43.314c-13.629-9.29-42.579-3.282-53.219-17.034c-10.64-13.752,2.43-40.284-3.144-55.812 c-5.777-16.094-32.561-28.341-33.057-45.077c-0.5-16.903,25.574-30.757,30.293-46.995c4.673-16.077-9.947-41.789-0.323-55.92 c9.286-13.635,38.399-9.531,52.145-20.176c13.746-10.645,17.072-39.869,32.593-45.445c16.087-5.779,37.303,14.824,54.031,14.329 c16.896-0.501,36.837-22.281,53.068-17.559c16.07,4.675,21.208,33.685,35.333,43.314c13.629,9.29,42.579,3.282,53.219,17.034 C397.721,157.598,384.65,184.13,390.224,199.658z M380.179,195.67c-6.015-14.415,5.073-40.13-5.648-52.623 c-10.721-12.494-37.807-5.423-51.139-13.554c-13.818-8.427-20.066-35.612-35.486-39.261c-15.574-3.686-33.386,17.866-49.338,19.15 c-15.794,1.271-36.843-17.193-51.777-10.957c-14.409,6.017-16.153,33.81-28.641,44.535c-12.488,10.725-40.213,8.241-48.34,21.579 c-8.423,13.824,6.633,37.435,2.985,52.861c-3.684,15.581-27.675,29.932-26.392,45.891c1.271,15.801,27.185,26.097,33.418,41.038 c6.015,14.415-5.073,40.13,5.648,52.623c10.721,12.493,37.807,5.423,51.139,13.554c13.818,8.427,20.066,35.612,35.486,39.261 c15.574,3.686,33.386-17.866,49.338-19.15c15.794-1.271,36.843,17.193,51.777,10.957c14.409-6.017,16.153-33.81,28.641-44.535 c12.488-10.725,40.213-8.241,48.34-21.579c8.423-13.824-6.633-37.435-2.985-52.861c3.684-15.581,27.675-29.932,26.392-45.891 C412.327,220.907,386.413,210.611,380.179,195.67z M413.514,359.024c-12.228,18.391-3.976,56.533-21.67,70.518 c-17.072,13.494-52.097-3.175-73.604,4.793c-21.506,7.968-37.228,43.44-58.967,44.327c-22.531,0.919-41.103-33.399-62.356-39.385 c-21.465-6.046-55.165,13.491-73.733,1.135c-18.383-12.234-13.398-50.781-27.377-68.482c-13.488-17.079-52.301-20.954-60.266-42.469 c-7.965-21.515,18.962-49.748,18.076-71.496c-0.918-22.54-29.799-48.541-23.816-69.803c6.043-21.475,44.334-28.612,56.684-47.187 c12.228-18.391,3.976-56.533,21.67-70.517c17.072-13.494,52.097,3.175,73.604-4.793c21.506-7.968,37.228-43.441,58.967-44.327 c22.531-0.919,41.103,33.399,62.356,39.385c21.465,6.046,55.165-13.491,73.733-1.135c18.383,12.234,13.398,50.781,27.377,68.482 c13.488,17.079,52.301,20.954,60.266,42.47c7.965,21.515-18.962,49.748-18.076,71.496c0.918,22.541,29.799,48.541,23.816,69.803 C464.155,333.312,425.864,340.449,413.514,359.024z M464.05,298.56c4.702-20.669-24.242-44.184-26.217-65.743 c-1.906-20.801,22.53-49.17,13.851-69.403c-8.679-20.234-46.067-22.06-59.824-37.774c-14.258-16.285-11.353-53.473-29.566-64.305 c-18.396-10.94-49.746,9.424-70.613,4.673c-20.66-4.704-40.128-36.692-61.678-34.715C209.21,33.2,195.864,67.962,175.64,76.645 c-20.225,8.683-54.605-5.59-70.311,8.173c-16.278,14.264-6.516,50.419-17.343,68.64c-10.935,18.404-47.287,27.106-52.036,47.982 c-4.702,20.669,24.242,44.184,26.217,65.743c1.906,20.801-22.53,49.17-13.851,69.403c8.679,20.234,46.067,22.06,59.824,37.774 c14.258,16.285,11.353,53.473,29.566,64.305c18.396,10.94,49.746-9.424,70.613-4.673c20.66,4.704,40.128,36.692,61.678,34.715 c20.792-1.907,34.138-36.669,54.363-45.352c20.225-8.683,54.605,5.59,70.311-8.173c16.278-14.264,6.516-50.419,17.343-68.64 C422.949,328.138,459.301,319.435,464.05,298.56z M399.141,429.132c-0.628,2.254-1.248,4.522-1.876,6.782 c-2.951,9.623-7.061,17.96-14.386,22.629c-19.829,12.64-55.664-9.112-79.657-2.897c-13.402,3.471-25.801,16.365-38.227,26.824 c-2.377,1.866-4.747,3.761-7.112,5.624c-7.48,5.458-15.04,9.237-22.902,8.76c-24.324-1.476-40.541-40.404-62.737-49.164 c-12.713-5.018-30.554-1.622-47.014-0.534c-2.226,0.091-4.459,0.192-6.687,0.285c-9.988,0.158-19.088-1.159-25.695-6.595 c-18.427-15.163-8.855-56.062-21.95-76.621c-7.273-11.419-24.039-19.054-38.149-28.054c-1.254-0.828-2.512-1.656-3.769-2.486 c-8.746-6.007-15.922-12.779-18.234-21.712c-6.212-24.003,25.823-51.411,27.247-74.89c0.841-13.869-7.955-29.938-14.06-45.306 c-0.761-2.062-1.532-4.126-2.294-6.187c-3.19-9.369-4.714-18.32-1.623-26.159c8.844-22.427,50.791-25.912,66.099-44.532 c8.516-10.358,10.763-28.127,14.741-44.033c0.628-2.255,1.248-4.523,1.876-6.785c2.951-9.622,7.061-17.958,14.386-22.628 c19.829-12.64,55.664,9.112,79.657,2.897c13.402-3.472,25.802-16.365,38.228-26.825c2.376-1.866,4.746-3.76,7.111-5.623 c7.48-5.458,15.04-9.237,22.902-8.76c24.324,1.476,40.541,40.404,62.737,49.164c12.712,5.017,30.552,1.623,47.011,0.534 c2.227-0.091,4.461-0.192,6.689-0.285c9.988-0.158,19.088,1.159,25.695,6.595c18.427,15.163,8.855,56.062,21.95,76.621 c7.273,11.419,24.039,19.054,38.149,28.054c1.254,0.828,2.513,1.657,3.771,2.487c8.746,6.006,15.92,12.778,18.232,21.711 c6.212,24.002-25.823,51.411-27.247,74.89c-0.841,13.869,7.955,29.938,14.06,45.306c0.761,2.062,1.532,4.127,2.294,6.187 c3.19,9.369,4.714,18.32,1.623,26.159c-8.844,22.427-50.791,25.912-66.099,44.532C405.367,395.458,403.12,413.227,399.141,429.132z M414.148,371.896c13.811-18.649,53.97-24.045,61.38-46.039c7.336-21.776-21.301-50.312-21.068-73.78 c0.225-22.643,29.689-50.557,22.546-73.331c-7.142-22.774-47.265-28.846-60.38-47.303c-13.592-19.128-6.382-58.916-24.838-72.596 c-18.64-13.817-54.684,4.706-76.668-2.707c-21.767-7.34-39.256-43.975-62.714-44.208c-22.633-0.225-40.837,35.802-63.602,42.947 c-22.764,7.145-58.278-12.02-76.726,1.1c-19.12,13.598-12.555,53.662-26.229,72.125c-13.811,18.649-53.97,24.045-61.38,46.039 c-7.336,21.776,21.301,50.312,21.068,73.78c-0.225,22.643-29.689,50.557-22.546,73.331c7.142,22.774,47.265,28.846,60.38,47.303 c13.592,19.128,6.382,58.916,24.838,72.596c18.64,13.817,54.684-4.706,76.668,2.707c21.767,7.34,39.256,43.975,62.714,44.208 c22.633,0.225,40.837-35.802,63.602-42.947c22.764-7.146,58.278,12.02,76.726-1.1C407.04,430.423,400.474,390.359,414.148,371.896z M412.686,398.576c-6.675,7.328-10.248,18.725-13.545,30.557c-0.578,2.312-1.199,4.578-1.876,6.782 c-0.186,0.669-0.371,1.339-0.559,2.006c3.558-10.118,7.599-19.481,13.825-25.656c10.235-10.153,28.781-14.398,45.268-20.132 c4.868-7.042,9.39-14.341,13.529-21.881C451.857,380.629,425.051,385.001,412.686,398.576z M312.609,191.659 c6.692,7.185,23.601,7.58,27.651,16.3c4.091,8.808-6.534,22.027-5.349,31.666c1.174,9.544,14.71,19.801,12.83,29.44 c-1.814,9.3-18.108,13.73-22.953,22.463c-4.845,8.733,0.016,24.91-6.913,31.369c-7.182,6.695-23.043,0.628-31.76,4.68 c-8.804,4.092-14.397,20.106-24.033,21.292c-9.54,1.174-18.819-12.973-28.453-14.854c-9.296-1.815-23.214,7.915-31.944,3.068 c-8.729-4.847-7.837-21.811-14.294-28.743c-6.692-7.185-23.601-7.58-27.651-16.3c-4.091-8.808,6.534-22.027,5.349-31.666 c-1.174-9.544-14.71-19.801-12.83-29.44c1.814-9.3,18.108-13.73,22.953-22.463c4.845-8.733-0.016-24.91,6.913-31.369 c7.182-6.695,23.043-0.628,31.76-4.68c8.804-4.092,14.398-20.106,24.033-21.292c9.54-1.174,18.819,12.973,28.453,14.854 c9.296,1.815,23.214-7.916,31.944-3.068C307.044,167.763,306.152,184.727,312.609,191.659z M304.055,194.254 c-6.17-5.985-6.141-21.399-14.273-25.389c-8.133-3.991-20.299,5.467-28.806,4.249c-8.817-1.262-17.875-13.655-26.466-12.152 c-8.677,1.518-13.01,16.286-20.8,20.399c-7.713,4.073-22.365-0.696-28.565,5.701c-5.982,6.172-0.834,20.608-4.824,28.744 c-3.989,8.136-18.551,12.9-19.768,21.411c-1.261,8.821,11.476,17.493,12.978,26.088c1.517,8.68-7.504,21.148-3.392,28.941 c4.071,7.716,19.411,7.297,25.806,13.5c6.17,5.985,6.141,21.399,14.273,25.39c8.133,3.991,20.299-5.467,28.806-4.249 c8.817,1.262,17.875,13.655,26.466,12.152c8.677-1.518,13.01-16.286,20.8-20.399c7.713-4.072,22.365,0.696,28.565-5.701 c5.982-6.172,0.834-20.608,4.824-28.744c3.989-8.136,18.551-12.9,19.768-21.411c1.261-8.821-11.476-17.493-12.978-26.088 c-1.517-8.68,7.504-21.148,3.392-28.941C325.79,200.037,310.449,200.457,304.055,194.254z M481.912,324.509 c-0.843-2.604-1.771-5.234-2.735-7.876c1.078,3.653,2.254,7.335,3.409,11.007C482.35,326.592,482.125,325.548,481.912,324.509z M295.939,197.551c6.016,5.272,19.753,4.198,23.755,10.932c4.041,6.801-3.481,18.392-1.726,26.107 c1.738,7.638,13.554,14.836,12.824,22.803c-0.704,7.687-13.546,12.622-16.753,20.099c-3.207,7.478,2.065,20.188-3.019,25.995 c-5.269,6.019-18.625,2.409-25.356,6.412c-6.798,4.043-10.013,17.483-17.725,19.239c-7.635,1.738-16.322-8.963-24.285-9.693 c-7.684-0.705-18.164,8.33-25.638,5.121c-7.474-3.209-8.149-17.032-13.953-22.118c-6.016-5.272-19.753-4.197-23.755-10.931 c-4.041-6.801,3.481-18.392,1.726-26.107c-1.738-7.638-13.554-14.836-12.824-22.803c0.704-7.687,13.546-12.622,16.753-20.099 c3.207-7.477-2.065-20.188,3.019-25.995c5.269-6.019,18.625-2.409,25.356-6.412c6.798-4.043,10.013-17.483,17.725-19.239 c7.635-1.738,16.322,8.963,24.285,9.693c7.684,0.705,18.164-8.33,25.638-5.121C289.46,178.642,290.134,192.465,295.939,197.551z M288.309,201.513c-5.366-4.241-6.583-16.446-13.343-18.951c-6.76-2.505-15.63,5.963-22.463,5.684 c-7.082-0.289-15.251-9.371-21.931-7.489c-6.747,1.9-8.989,13.941-14.825,17.825c-5.778,3.845-17.762,1.25-22.156,6.814 c-4.239,5.368,0.998,16.382-1.506,23.145c-2.504,6.763-13.648,11.707-13.927,18.543c-0.289,7.085,10.493,12.925,12.374,19.608 c1.9,6.75-4.239,17.347-0.357,23.186c3.844,5.781,15.955,4.213,21.516,8.609c5.366,4.241,6.583,16.446,13.343,18.951 s15.63-5.963,22.463-5.684c7.082,0.289,15.251,9.371,21.931,7.489c6.747-1.9,8.989-13.941,14.826-17.825 c5.778-3.845,17.762-1.251,22.156-6.814c4.239-5.368-0.998-16.382,1.506-23.145c2.504-6.763,13.648-11.707,13.927-18.543 c0.289-7.085-10.493-12.925-12.374-19.608c-1.899-6.75,4.239-17.347,0.357-23.186C305.982,204.341,293.87,205.909,288.309,201.513z M281.21,206.097c5.036,3.581,15.51,1.682,19.111,6.544c3.637,4.911-1.239,14.408,0.713,20.2 c1.932,5.735,11.576,10.343,11.638,16.524c0.059,5.964-9.425,10.76-11.306,16.758c-1.881,5.998,3.164,15.355-0.289,20.216 c-3.58,5.038-14.127,3.308-18.987,6.911c-4.909,3.639-6.33,14.22-12.12,16.172c-5.732,1.933-13.245-5.612-19.423-5.551 c-5.961,0.059-13.309,7.822-19.305,5.941c-5.995-1.882-7.594-12.453-12.452-15.909c-5.036-3.581-15.51-1.682-19.111-6.544 c-3.637-4.911,1.239-14.408-0.713-20.201c-1.932-5.735-11.576-10.343-11.638-16.524c-0.059-5.964,9.425-10.76,11.306-16.758 c1.881-5.998-3.164-15.355,0.289-20.216c3.58-5.038,14.127-3.308,18.987-6.911c4.909-3.639,6.33-14.22,12.12-16.173 c5.732-1.933,13.245,5.612,19.423,5.551c5.961-0.059,13.309-7.822,19.305-5.941C274.753,192.07,276.352,202.641,281.21,206.097z M274.686,211.259c-4.287-2.733-6.105-11.668-11.293-13.011c-5.187-1.344-11.111,5.586-16.185,5.894 c-5.259,0.319-11.983-5.782-16.782-3.888c-4.847,1.913-5.6,10.986-9.624,14.298c-3.984,3.279-13.042,2.261-15.873,6.707 c-2.732,4.289,1.969,12.041,0.626,17.23c-1.343,5.19-9.214,9.685-8.906,14.761c0.319,5.261,8.732,8.769,10.625,13.57 c1.912,4.849-1.831,13.148,1.479,17.174c3.277,3.986,12.116,1.915,16.56,4.748c4.287,2.733,6.105,11.668,11.293,13.011 s11.111-5.586,16.185-5.894c5.259-0.319,11.983,5.783,16.782,3.889c4.847-1.913,5.6-10.986,9.624-14.298 c3.984-3.279,13.042-2.261,15.873-6.707c2.732-4.289-1.969-12.04-0.626-17.23c1.343-5.19,9.214-9.685,8.906-14.761 c-0.319-5.261-8.732-8.769-10.625-13.57c-1.912-4.849,1.831-13.148-1.479-17.174C287.969,212.021,279.13,214.092,274.686,211.259z M361.476,211.253c3.768,10.877-10.345,25.191-10.103,36.7c0.24,11.395,14.973,25.115,11.6,36.255 c-3.254,10.749-22.999,14.019-29.759,23.736c-6.76,9.717-2.967,29.376-11.912,36.162c-9.271,7.033-27.248-2.023-38.013,1.709 c-10.872,3.77-19.388,21.982-30.892,22.224c-11.39,0.24-20.637-17.555-31.772-20.929c-10.745-3.256-28.324,6.549-38.036-0.214 c-9.712-6.763-6.627-26.66-13.41-35.61c-7.03-9.275-26.922-11.77-30.653-22.539c-3.768-10.877,10.345-25.191,10.103-36.7 c-0.24-11.395-14.973-25.115-11.6-36.255c3.254-10.749,22.999-14.019,29.759-23.736c6.76-9.717,2.967-29.376,11.912-36.162 c9.271-7.033,27.248,2.023,38.013-1.709c10.872-3.77,19.388-21.982,30.892-22.224c11.39-0.24,20.637,17.555,31.772,20.929 c10.745,3.256,28.324-6.549,38.036,0.214c9.712,6.763,6.627,26.66,13.41,35.61C337.853,197.989,357.745,200.484,361.476,211.253z M321.549,189.802c-6.663-7.922-4.751-26.385-14.008-32.158c-9.257-5.773-24.984,4.075-35.028,1.58 c-10.409-2.586-19.753-18.538-30.228-17.785c-10.58,0.761-17.57,17.925-27.403,21.904c-9.736,3.939-26.709-3.559-34.917,3.349 c-7.919,6.666-3.509,24.588-9.279,33.849c-5.77,9.262-23.796,13.194-26.29,23.242c-2.585,10.414,11.619,22.357,12.372,32.836 c0.76,10.584-11.565,24.422-7.589,34.26c3.937,9.74,22.367,11.108,29.273,19.319c6.663,7.922,4.751,26.385,14.008,32.158 c9.257,5.773,24.984-4.075,35.028-1.58c10.409,2.586,19.753,18.538,30.228,17.785c10.58-0.761,17.57-17.925,27.403-21.904 c9.736-3.939,26.709,3.559,34.917-3.349c7.919-6.666,3.509-24.588,9.279-33.849c5.77-9.262,23.796-13.194,26.29-23.242 c2.585-10.414-11.619-22.357-12.372-32.836c-0.76-10.584,11.565-24.422,7.589-34.26C346.884,199.38,328.454,198.013,321.549,189.802 z M268.776,216.953c3.79,2.154,11.007,0.073,13.882,3.229c2.904,3.188,0.158,10.202,1.942,14.129 c1.765,3.888,8.864,6.434,9.348,10.768c0.467,4.182-5.848,8.226-6.741,12.571c-0.892,4.345,3.317,10.553,1.239,14.211 c-2.153,3.792-9.68,3.331-12.835,6.207c-3.186,2.905-3.429,10.434-7.354,12.218c-3.886,1.766-9.698-2.994-14.03-2.51 c-4.18,0.467-8.785,6.442-13.127,5.549c-4.343-0.893-6.219-8.199-9.876-10.278c-3.79-2.154-11.007-0.073-13.882-3.229 c-2.904-3.188-0.158-10.202-1.942-14.129c-1.765-3.888-8.864-6.434-9.348-10.768c-0.467-4.182,5.848-8.226,6.741-12.571 c0.892-4.345-3.317-10.553-1.239-14.211c2.153-3.792,9.68-3.331,12.835-6.207c3.186-2.905,3.429-10.434,7.354-12.218 c3.886-1.766,9.698,2.994,14.03,2.51c4.18-0.467,8.785-6.441,13.127-5.549C263.242,207.568,265.119,214.874,268.776,216.953z M263.515,223.128c-2.974-1.496-4.749-7.196-8.217-7.727c-3.468-0.532-6.868,4.375-10.153,4.912 c-3.405,0.556-8.189-2.973-11.189-1.421c-3.031,1.567-2.92,7.528-5.322,9.951c-2.378,2.4-8.346,2.337-9.896,5.421 c-1.495,2.975,2.08,7.713,1.549,11.182s-5.36,6.919-4.824,10.206c0.556,3.406,6.269,5.134,7.82,8.135 c1.567,3.032-0.322,8.686,2.101,11.089c2.399,2.379,8.019,0.445,11.101,1.995c2.974,1.496,4.749,7.196,8.217,7.727 c3.468,0.532,6.868-4.375,10.153-4.912c3.405-0.556,8.189,2.973,11.189,1.421c3.031-1.567,2.92-7.528,5.322-9.951 c2.378-2.4,8.346-2.337,9.896-5.421c1.495-2.975-2.08-7.713-1.549-11.182c0.531-3.47,5.36-6.919,4.824-10.206 c-0.556-3.406-6.269-5.134-7.82-8.135c-1.567-3.032,0.322-8.686-2.101-11.089C272.218,222.745,266.597,224.679,263.515,223.128z M484.738,336.432c0.058-0.157,0.119-0.311,0.176-0.468c-0.133-0.716-0.271-1.433-0.43-2.157c-0.612-2.047-1.251-4.105-1.899-6.167 C483.24,330.547,483.981,333.487,484.738,336.432z M393.009,448.913c0.424-0.991,0.855-1.969,1.292-2.937 c0.847-2.632,1.638-5.331,2.406-8.056C395.438,441.526,394.231,445.226,393.009,448.913z M481.912,324.509 c1.019,3.149,1.902,6.256,2.572,9.298c0.179,0.6,0.356,1.199,0.53,1.798c-0.986-7.876-1.117-15.372,0.668-21.995 c1.724-6.398,5.579-12.636,10.386-18.827c1.528-8.459,2.633-17.064,3.288-25.796c-8.39,10.327-16.268,20.557-18.505,30.924 C479.248,307.34,480.121,315.749,481.912,324.509z M466.083,154.62c2.917,6.617,8.395,12.643,14.846,18.479 c2.476,1.801,4.84,3.651,7.041,5.568c0.655,0.496,1.304,0.994,1.951,1.494c-5.246-5.553-9.572-11.246-11.881-17.299 c-2.448-6.417-3.075-13.897-2.888-21.844c-3.813-7.869-8.034-15.501-12.621-22.884C461.876,131.472,461.652,144.568,466.083,154.62z M389.459,457.686c0.136-0.092,0.275-0.181,0.411-0.273c0.35-0.734,0.692-1.476,1.021-2.237c0.72-2.07,1.422-4.164,2.117-6.264 C391.787,451.77,390.619,454.719,389.459,457.686z M226.113,14.998c7.602-0.773,15.324-4.145,23.06-8.491 c3.03-2.219,6.056-4.269,9.084-6.01c0.222-0.153,0.444-0.306,0.666-0.458c-7.207,3.354-14.345,5.78-21.283,6.132 c-6.983,0.354-14.38-1.359-21.939-3.996c-8.739,1.199-17.332,2.85-25.759,4.928C202.471,11.864,214.977,16.131,226.113,14.998z M294.338,465.846c-10.003,2.057-19.73,9.079-29.343,16.625c-2.367,1.992-4.736,3.89-7.112,5.624 c-0.156,0.123-0.312,0.246-0.469,0.369c8.999-6.145,18.06-11.42,27.139-12.811c14.651-2.245,32.281,5.165,48.928,10.225 c8.061-2.855,15.933-6.108,23.59-9.743C337.075,474.155,312.805,462.049,294.338,465.846z M33.917,345.38 c-2.917-6.617-8.395-12.643-14.846-18.479c-2.476-1.801-4.84-3.651-7.041-5.568c-0.655-0.496-1.304-0.994-1.951-1.494 c5.246,5.553,9.571,11.246,11.881,17.299c2.448,6.417,3.075,13.897,2.888,21.844c3.813,7.869,8.034,15.501,12.621,22.884 C38.124,368.528,38.348,355.432,33.917,345.38z M273.887,485.002c-7.602,0.773-15.324,4.145-23.06,8.491 c-3.03,2.219-6.056,4.269-9.084,6.01c-0.222,0.153-0.444,0.307-0.666,0.458c7.207-3.354,14.345-5.78,21.283-6.132 c6.983-0.354,14.38,1.359,21.939,3.996c8.739-1.199,17.332-2.85,25.759-4.928C297.529,488.136,285.023,483.869,273.887,485.002z M131.262,454.193c-6.444-3.758-14.591-5.494-23.375-6.475c-3.326,0.002-6.571-0.115-9.695-0.414 c-0.612-0.014-1.221-0.031-1.83-0.049c7.696,1.47,14.753,3.623,20.386,7.303c5.64,3.684,10.451,9.339,14.904,15.875 c7.626,4.107,15.493,7.821,23.569,11.132C147.957,470.351,140.57,459.621,131.262,454.193z M440.897,411.584 c-12.9,3.477-25.403,7.258-33.504,14.517c-5.435,4.87-9.514,11.95-13.093,19.875c-1.029,3.198-2.15,6.285-3.409,9.201 c-0.191,0.55-0.387,1.095-0.581,1.642c3.698-6.742,7.832-12.665,12.942-16.798c5.284-4.273,12.167-7.146,19.763-9.396 C429.302,424.596,435.265,418.236,440.897,411.584z M105.7,54.024c1.029-3.198,2.15-6.285,3.409-9.201 c0.191-0.55,0.387-1.095,0.581-1.642c-3.698,6.742-7.832,12.665-12.942,16.798c-5.284,4.273-12.167,7.146-19.763,9.396 c-6.286,6.028-12.25,12.389-17.881,19.04c12.9-3.477,25.403-7.258,33.504-14.517C98.042,69.029,102.121,61.949,105.7,54.024z M250.827,493.493c2.193-1.606,4.389-3.301,6.588-5.029c-3.192,2.18-6.377,4.469-9.551,6.734 C248.852,494.615,249.84,494.048,250.827,493.493z M18.088,175.491c-1.019-3.149-1.902-6.256-2.572-9.298 c-0.179-0.6-0.356-1.199-0.53-1.798c0.986,7.876,1.117,15.372-0.668,21.995c-1.724,6.398-5.579,12.636-10.386,18.827 c-1.528,8.459-2.633,17.064-3.288,25.796c8.39-10.327,16.268-20.557,18.505-30.924C20.752,192.66,19.879,184.251,18.088,175.491z M368.738,45.807c6.444,3.758,14.591,5.494,23.375,6.475c3.326-0.002,6.572,0.116,9.695,0.414c0.612,0.014,1.221,0.031,1.83,0.049 c-7.696-1.47-14.753-3.623-20.386-7.303c-5.64-3.684-10.451-9.339-14.904-15.875c-7.626-4.107-15.493-7.821-23.569-11.132 C352.043,29.649,359.43,40.379,368.738,45.807z M32.75,336.171c-1.254-0.828-2.512-1.656-3.769-2.486 c-0.983-0.649-1.965-1.3-2.942-1.953c8.528,6.49,16.173,13.165,20.066,20.91c6.536,13.001,4.915,31.95,5.274,49.35 c5.199,6.79,10.734,13.308,16.588,19.523c-4.381-19.725-0.366-46.487-9.512-62.593C53.475,350.154,43.318,343.15,32.75,336.171z M159.064,450.719c-9.226-4.193-21.395-4.07-33.834-3.562c-2.262,0.15-4.494,0.251-6.687,0.285 c-0.766,0.032-1.532,0.063-2.296,0.092c10.862,0.278,21.188,1.255,29.138,5.367c12.672,6.554,22.353,22.886,32.898,36.818 c8.145,2.435,16.463,4.466,24.934,6.07C187.918,482.33,175.578,458.224,159.064,450.719z M107.888,447.717 c2.747-0.002,5.544-0.078,8.36-0.184c-3.807-0.097-7.679-0.11-11.538-0.141C105.777,447.491,106.836,447.6,107.888,447.717z M95.496,446.726c0.132,0.104,0.266,0.206,0.398,0.31c0.759,0.099,1.523,0.193,2.299,0.267c2.159,0.048,4.335,0.073,6.516,0.09 C101.685,447.116,98.597,446.914,95.496,446.726z M19.071,326.901c2.256,1.641,4.597,3.245,6.968,4.831 c-3.012-2.293-6.134-4.563-9.241-6.848C17.568,325.554,18.325,326.226,19.071,326.901z M240.143,499.967 c0.236,0.009,0.472,0.018,0.708,0.027c0.298-0.163,0.595-0.32,0.892-0.491c2.036-1.403,4.076-2.846,6.121-4.305 C245.288,496.719,242.715,498.334,240.143,499.967z" fill="#2273f3"/></g></svg>