<?xml version="1.0" encoding="UTF-8" standalone="no"?><svg xmlns="http://www.w3.org/2000/svg" xmlns:xlink="http://www.w3.org/1999/xlink" fill="#000000" height="500" preserveAspectRatio="xMidYMid meet" version="1" viewBox="0.0 0.0 499.5 500.0" width="499.5" zoomAndPan="magnify"><g fill="#2273f3" id="change1_1"><path d="M134.353,39.621l-4.819-8.766c-9.205,5.067-18.052,10.699-26.503,16.846l5.879,8.092 C117.023,49.893,125.516,44.485,134.353,39.621z" fill="inherit"/><path d="M85.689,75.016l-6.847-7.291c-7.634,7.17-14.823,14.808-21.507,22.881l7.707,6.376 C71.459,89.231,78.361,81.9,85.689,75.016z" fill="inherit"/><path d="M190.307,17.473l-2.488-9.689c-10.226,2.613-20.199,5.856-29.875,9.685l3.683,9.301 C170.916,23.095,180.49,19.982,190.307,17.473z" fill="inherit"/><path d="M47.312,121.364l-8.446-5.36c-5.599,8.811-10.655,18.001-15.136,27.517l9.051,4.259 C37.083,138.645,41.937,129.823,47.312,121.364z" fill="inherit"/><path d="M10.01,250c0-5.063,0.175-10.084,0.483-15.069l-9.98-0.628C0.192,239.496,0.01,244.726,0.01,250 s0.183,10.504,0.504,15.697l9.98-0.628C10.185,260.084,10.01,255.063,10.01,250z" fill="inherit"/><path d="M21.691,175.815l-9.513-3.091c-3.205,9.885-5.81,20.04-7.775,30.424l9.824,1.874 C16.113,195.053,18.614,185.304,21.691,175.815z" fill="inherit"/><path d="M250.01,10V0c-10.615,0-21.072,0.666-31.336,1.947l1.253,9.922C229.781,10.639,239.82,10,250.01,10z" fill="inherit"/><path d="M478.329,175.815l9.513-3.091c-3.251-10.028-7.115-19.777-11.553-29.202l-9.051,4.259 C471.498,156.829,475.208,166.188,478.329,175.815z" fill="inherit"/><path d="M452.707,121.364l8.446-5.36c-5.631-8.86-11.799-17.344-18.468-25.399l-7.707,6.376 C441.379,104.714,447.302,112.858,452.707,121.364z" fill="inherit"/><path d="M414.33,75.016l6.847-7.291c-7.628-7.165-15.707-13.853-24.189-20.023l-5.879,8.092 C399.252,61.717,407.008,68.138,414.33,75.016z" fill="inherit"/><path d="M309.712,17.473l2.488-9.689c-10.054-2.569-20.352-4.527-30.854-5.838l-1.253,9.922 C290.174,13.127,300.061,15.006,309.712,17.473z" fill="inherit"/><path d="M365.666,39.621l4.819-8.766c-9.138-5.029-18.619-9.511-28.41-13.386l-3.683,9.301 C347.792,30.49,356.894,34.793,365.666,39.621z" fill="inherit"/><path d="M65.042,403.018l-7.707,6.376c6.684,8.073,13.873,15.71,21.507,22.881l6.847-7.291 C78.361,418.1,71.459,410.768,65.042,403.018z" fill="inherit"/><path d="M391.109,444.206l5.879,8.092c8.482-6.17,16.561-12.858,24.189-20.023l-6.847-7.291 C407.008,431.862,399.252,438.283,391.109,444.206z" fill="inherit"/><path d="M434.977,403.018l7.707,6.376c6.669-8.055,12.838-16.538,18.469-25.399l-8.446-5.36 C447.302,387.142,441.379,395.286,434.977,403.018z" fill="inherit"/><path d="M338.392,473.229l3.683,9.301c9.791-3.874,19.273-8.357,28.41-13.386l-4.819-8.766 C356.894,465.207,347.792,469.51,338.392,473.229z" fill="inherit"/><path d="M14.227,294.978l-9.824,1.874c1.965,10.384,4.571,20.539,7.775,30.424l9.513-3.091 C18.614,314.695,16.113,304.947,14.227,294.978z" fill="inherit"/><path d="M467.237,352.22l9.051,4.259c4.438-9.426,8.302-19.175,11.553-29.202l-9.513-3.091 C475.208,333.812,471.498,343.171,467.237,352.22z" fill="inherit"/><path d="M280.093,488.131l1.253,9.922c10.502-1.31,20.801-3.269,30.854-5.838l-2.488-9.689 C300.061,484.993,290.174,486.873,280.093,488.131z" fill="inherit"/><path d="M485.793,294.978l9.824,1.874c1.926-10.18,3.235-20.577,3.889-31.155l-9.98-0.628 C488.898,275.224,487.642,285.206,485.793,294.978z" fill="inherit"/><path d="M485.793,205.022c1.849,9.772,3.106,19.754,3.734,29.909l9.98-0.628 c-0.654-10.578-1.963-20.976-3.889-31.155L485.793,205.022z" fill="inherit"/><path d="M32.782,352.22l-9.051,4.259c4.481,9.516,9.537,18.705,15.136,27.517l8.446-5.36 C41.937,370.177,37.083,361.355,32.782,352.22z" fill="inherit"/><path d="M219.927,488.131l-1.253,9.922c10.265,1.281,20.722,1.947,31.336,1.947v-10 C239.82,490,229.781,489.361,219.927,488.131z" fill="inherit"/><path d="M161.627,473.229l-3.683,9.301c9.676,3.829,19.648,7.072,29.875,9.685l2.488-9.689 C180.49,480.018,170.916,476.905,161.627,473.229z" fill="inherit"/><path d="M108.911,444.206l-5.879,8.092c8.45,6.147,17.297,11.779,26.503,16.846l4.819-8.766 C125.516,455.515,117.023,450.107,108.911,444.206z" fill="inherit"/><path d="M72.749,103.357l-7.707-6.376c-6.402,7.733-12.324,15.877-17.73,24.383l8.446,5.36 C60.938,118.573,66.614,110.768,72.749,103.357z" fill="inherit"/><path d="M165.31,36.072l-3.683-9.301c-9.399,3.72-18.502,8.022-27.274,12.851l4.819,8.766 C147.579,43.76,156.302,39.637,165.31,36.072z" fill="inherit"/><path d="M41.833,152.04l-9.051-4.259c-4.261,9.049-7.97,18.408-11.091,28.034l9.513,3.091 C34.195,169.68,37.75,160.711,41.833,152.04z" fill="inherit"/><path d="M20.473,264.441l-9.98,0.628c0.628,10.155,1.884,20.137,3.734,29.909l9.824-1.874 C22.279,283.739,21.075,274.173,20.473,264.441z" fill="inherit"/><path d="M24.051,206.896l-9.824-1.874c-1.849,9.772-3.106,19.754-3.734,29.909l9.98,0.628 C21.075,225.827,22.279,216.261,24.051,206.896z" fill="inherit"/><path d="M114.79,63.886l-5.879-8.092c-8.143,5.923-15.899,12.344-23.222,19.222l6.847,7.291 C99.553,75.715,106.986,69.562,114.79,63.886z" fill="inherit"/><path d="M427.27,103.357l7.707-6.376c-6.417-7.75-13.318-15.082-20.647-21.965l-6.847,7.291 C414.507,88.904,421.121,95.93,427.27,103.357z" fill="inherit"/><path d="M458.186,152.04l9.051-4.259c-4.301-9.135-9.155-17.957-14.53-26.416l-8.446,5.36 C449.413,134.831,454.064,143.285,458.186,152.04z" fill="inherit"/><path d="M385.23,63.886l5.879-8.092c-8.112-5.901-16.605-11.308-25.442-16.172l-4.819,8.766 C369.316,53.048,377.456,58.231,385.23,63.886z" fill="inherit"/><path d="M278.839,21.791l1.253-9.922C270.239,10.639,260.2,10,250.01,10v10 C259.775,20,269.396,20.612,278.839,21.791z" fill="inherit"/><path d="M221.18,21.791l-1.253-9.922c-10.082,1.258-19.968,3.138-29.62,5.604l2.488,9.689 C202.044,24.798,211.519,22.996,221.18,21.791z" fill="inherit"/><path d="M334.71,36.072l3.683-9.301c-9.289-3.676-18.863-6.789-28.68-9.298l-2.488,9.689 C316.633,29.566,325.808,32.549,334.71,36.072z" fill="inherit"/><path d="M407.484,417.693l6.847,7.291c7.328-6.884,14.23-14.215,20.647-21.965l-7.707-6.376 C421.121,404.07,414.507,411.096,407.484,417.693z" fill="inherit"/><path d="M444.261,373.276l8.446,5.36c5.375-8.459,10.229-17.281,14.53-26.416l-9.051-4.259 C454.064,356.715,449.413,365.169,444.261,373.276z" fill="inherit"/><path d="M31.204,321.094l-9.513,3.091c3.121,9.627,6.831,18.985,11.091,28.034l9.051-4.259 C37.75,339.289,34.195,330.32,31.204,321.094z" fill="inherit"/><path d="M468.815,178.906c2.948,9.094,5.345,18.437,7.153,27.99l9.824-1.874 c-1.886-9.969-4.388-19.717-7.464-29.207L468.815,178.906z" fill="inherit"/><path d="M468.815,321.094l9.513,3.091c3.077-9.49,5.578-19.238,7.464-29.207l-9.824-1.874 C474.161,302.658,471.764,312,468.815,321.094z" fill="inherit"/><path d="M480.01,250c0,4.852-0.168,9.664-0.463,14.441l9.98,0.628c0.308-4.985,0.483-10.006,0.483-15.069 s-0.175-10.084-0.483-15.069l-9.98,0.628C479.842,240.336,480.01,245.148,480.01,250z" fill="inherit"/><path d="M360.847,451.613l4.819,8.766c8.837-4.864,17.33-10.271,25.442-16.172l-5.879-8.092 C377.456,441.769,369.316,446.951,360.847,451.613z" fill="inherit"/><path d="M92.536,417.693l-6.847,7.291c7.323,6.879,15.079,13.299,23.222,19.223l5.879-8.092 C106.986,430.438,99.553,424.285,92.536,417.693z" fill="inherit"/><path d="M55.758,373.276l-8.446,5.36c5.405,8.506,11.327,16.65,17.73,24.383l7.707-6.376 C66.614,389.232,60.938,381.427,55.758,373.276z" fill="inherit"/><path d="M139.172,451.613l-4.819,8.766c8.772,4.828,17.875,9.131,27.274,12.85l3.683-9.301 C156.302,460.363,147.579,456.24,139.172,451.613z" fill="inherit"/><path d="M307.225,472.838l2.488,9.689c9.817-2.509,19.391-5.622,28.68-9.298l-3.683-9.301 C325.808,467.451,316.633,470.434,307.225,472.838z" fill="inherit"/><path d="M250.01,480v10c10.19,0,20.229-0.639,30.083-1.869l-1.253-9.922C269.396,479.388,259.775,480,250.01,480z" fill="inherit"/><path d="M192.794,472.838l-2.488,9.689c9.651,2.466,19.538,4.346,29.62,5.604l1.253-9.922 C211.519,477.004,202.044,475.202,192.794,472.838z" fill="inherit"/><path d="M64.204,132.084l-8.446-5.36c-5.151,8.106-9.803,16.561-13.925,25.315l9.051,4.259 C54.827,147.925,59.276,139.838,64.204,132.084z" fill="inherit"/><path d="M99.382,89.598l-6.847-7.291c-7.023,6.597-13.637,13.623-19.786,21.05l7.707,6.376 C86.338,102.629,92.665,95.908,99.382,89.598z" fill="inherit"/><path d="M143.991,57.153l-4.819-8.766c-8.469,4.661-16.608,9.844-24.382,15.499l5.879,8.092 C128.105,66.568,135.89,61.612,143.991,57.153z" fill="inherit"/><path d="M33.875,291.23l-9.824,1.874c1.808,9.554,4.205,18.896,7.153,27.99l9.513-3.091 C37.897,309.304,35.604,300.368,33.875,291.23z" fill="inherit"/><path d="M40.717,181.997l-9.513-3.091c-2.948,9.094-5.345,18.437-7.153,27.99l9.824,1.874 C35.604,199.632,37.897,190.696,40.717,181.997z" fill="inherit"/><path d="M30.01,250c0-4.641,0.161-9.244,0.443-13.813l-9.98-0.628c-0.295,4.777-0.463,9.589-0.463,14.441 s0.168,9.664,0.463,14.441l9.98-0.628C30.17,259.244,30.01,254.641,30.01,250z" fill="inherit"/><path d="M400.637,89.598l6.847-7.291c-7.018-6.592-14.45-12.745-22.254-18.422l-5.879,8.092 C386.815,77.407,393.925,83.293,400.637,89.598z" fill="inherit"/><path d="M356.028,57.153l4.819-8.766c-8.407-4.627-17.13-8.75-26.138-12.315l-3.683,9.301 C339.643,48.783,347.987,52.727,356.028,57.153z" fill="inherit"/><path d="M435.815,132.084l8.446-5.36c-5.18-8.152-10.855-15.956-16.991-23.367l-7.707,6.376 C425.432,116.822,430.86,124.287,435.815,132.084z" fill="inherit"/><path d="M304.737,36.85l2.488-9.689c-9.249-2.364-18.724-4.165-28.386-5.371l-1.253,9.922 C286.827,32.866,295.89,34.589,304.737,36.85z" fill="inherit"/><path d="M250.01,30V20c-9.765,0-19.386,0.612-28.83,1.791l1.253,9.922C231.467,30.586,240.669,30,250.01,30z" fill="inherit"/><path d="M195.282,36.85l-2.488-9.689c-9.408,2.404-18.583,5.388-27.485,8.911l3.683,9.301 C177.507,42.004,186.283,39.15,195.282,36.85z" fill="inherit"/><path d="M469.567,236.187l9.98-0.628c-0.602-9.732-1.806-19.298-3.578-28.663l-9.824,1.874 C467.839,217.728,468.991,226.878,469.567,236.187z" fill="inherit"/><path d="M419.563,390.267l7.707,6.376c6.136-7.411,11.811-15.215,16.991-23.367l-8.446-5.36 C430.86,375.713,425.432,383.178,419.563,390.267z" fill="inherit"/><path d="M449.135,343.701l9.051,4.259c4.083-8.672,7.638-17.641,10.629-26.866l-9.513-3.091 C456.441,326.828,453.041,335.407,449.135,343.701z" fill="inherit"/><path d="M331.027,454.627l3.683,9.301c9.008-3.565,17.731-7.688,26.138-12.315l-4.819-8.766 C347.987,447.273,339.643,451.217,331.027,454.627z" fill="inherit"/><path d="M379.351,428.022l5.879,8.092c7.804-5.677,15.236-11.83,22.254-18.422l-6.847-7.291 C393.925,416.707,386.815,422.593,379.351,428.022z" fill="inherit"/><path d="M449.135,156.299c3.906,8.295,7.306,16.874,10.167,25.698l9.513-3.091 c-2.991-9.226-6.546-18.194-10.629-26.866L449.135,156.299z" fill="inherit"/><path d="M50.884,343.701l-9.051,4.259c4.122,8.755,8.774,17.209,13.925,25.315l8.446-5.36 C59.276,360.162,54.827,352.075,50.884,343.701z" fill="inherit"/><path d="M466.144,291.23l9.824,1.874c1.772-9.365,2.976-18.931,3.578-28.663l-9.98-0.628 C468.991,273.122,467.839,282.272,466.144,291.23z" fill="inherit"/><path d="M120.669,428.022l-5.879,8.092c7.774,5.655,15.913,10.837,24.382,15.499l4.819-8.766 C135.89,438.388,128.105,433.432,120.669,428.022z" fill="inherit"/><path d="M80.456,390.267l-7.707,6.376c6.149,7.427,12.763,14.453,19.786,21.05l6.847-7.291 C92.665,404.092,86.338,397.371,80.456,390.267z" fill="inherit"/><path d="M168.992,454.627l-3.683,9.301c8.902,3.523,18.077,6.506,27.485,8.91l2.488-9.689 C186.283,460.85,177.507,457.996,168.992,454.627z" fill="inherit"/><path d="M277.586,468.287l1.253,9.922c9.662-1.206,19.137-3.007,28.386-5.371l-2.488-9.689 C295.89,465.411,286.827,467.134,277.586,468.287z" fill="inherit"/><path d="M222.434,468.287l-1.253,9.922c9.444,1.178,19.064,1.791,28.83,1.791v-10 C240.669,470,231.467,469.414,222.434,468.287z" fill="inherit"/><path d="M59.935,160.558l-9.051-4.259c-3.906,8.295-7.306,16.874-10.167,25.698l9.513,3.091 C52.961,176.665,56.207,168.476,59.935,160.558z" fill="inherit"/><path d="M126.548,80.069l-5.879-8.092c-7.464,5.43-14.574,11.315-21.286,17.621l6.847,7.291 C112.636,90.87,119.423,85.252,126.548,80.069z" fill="inherit"/><path d="M88.163,116.109l-7.707-6.376c-5.869,7.088-11.297,14.554-16.252,22.351l8.446,5.36 C77.379,130.001,82.561,122.875,88.163,116.109z" fill="inherit"/><path d="M43.699,210.644l-9.824-1.874c-1.695,8.958-2.847,18.108-3.422,27.417l9.98,0.628 C40.982,227.929,42.081,219.195,43.699,210.644z" fill="inherit"/><path d="M50.231,314.912l-9.513,3.091c2.861,8.824,6.261,17.403,10.167,25.698l9.051-4.259 C56.207,331.524,52.961,323.335,50.231,314.912z" fill="inherit"/><path d="M40.433,263.185l-9.98,0.628c0.575,9.309,1.727,18.459,3.422,27.417l9.824-1.874 C42.081,280.805,40.982,272.071,40.433,263.185z" fill="inherit"/><path d="M373.471,80.069l5.879-8.092c-7.436-5.409-15.221-10.366-23.322-14.825l-4.819,8.766 C358.942,70.175,366.373,74.906,373.471,80.069z" fill="inherit"/><path d="M327.345,54.674l3.683-9.301c-8.515-3.369-17.291-6.223-26.29-8.523l-2.488,9.689 C310.84,48.734,319.217,51.458,327.345,54.674z" fill="inherit"/><path d="M411.856,116.109l7.707-6.376c-5.882-7.104-12.209-13.825-18.926-20.135l-6.847,7.291 C400.203,102.912,406.242,109.327,411.856,116.109z" fill="inherit"/><path d="M172.675,54.674l-3.683-9.301c-8.616,3.41-16.96,7.354-25.001,11.78l4.819,8.766 C156.486,61.694,164.45,57.929,172.675,54.674z" fill="inherit"/><path d="M223.687,41.635l-1.253-9.922c-9.242,1.153-18.304,2.876-27.152,5.137l2.488,9.689 C206.215,44.381,214.866,42.736,223.687,41.635z" fill="inherit"/><path d="M276.332,41.635l1.253-9.922C268.553,30.586,259.351,30,250.01,30v10 C258.926,40,267.71,40.559,276.332,41.635z" fill="inherit"/><path d="M449.789,314.912l9.513,3.091c2.82-8.699,5.113-17.635,6.842-26.773l-9.824-1.874 C454.669,298.079,452.481,306.608,449.789,314.912z" fill="inherit"/><path d="M393.79,403.111l6.847,7.291c6.718-6.31,13.044-13.031,18.926-20.135l-7.707-6.376 C406.242,390.672,400.203,397.088,393.79,403.111z" fill="inherit"/><path d="M427.37,362.556l8.446,5.36c4.927-7.754,9.377-15.841,13.32-24.215l-9.051-4.259 C436.32,347.436,432.073,355.155,427.37,362.556z" fill="inherit"/><path d="M427.37,137.444c4.704,7.402,8.951,15.121,12.714,23.114l9.051-4.259 c-3.943-8.374-8.392-16.461-13.32-24.215L427.37,137.444z" fill="inherit"/><path d="M72.65,362.556l-8.446,5.36c4.955,7.797,10.383,15.262,16.252,22.351l7.707-6.376 C82.561,377.125,77.379,369.999,72.65,362.556z" fill="inherit"/><path d="M460.01,250c0,4.43-0.153,8.824-0.423,13.185l9.98,0.628c0.283-4.569,0.443-9.172,0.443-13.813 s-0.161-9.244-0.443-13.813l-9.98,0.628C459.856,241.176,460.01,245.57,460.01,250z" fill="inherit"/><path d="M456.32,210.644l9.824-1.874c-1.729-9.138-4.022-18.074-6.842-26.773l-9.513,3.091 C452.481,193.391,454.669,201.921,456.32,210.644z" fill="inherit"/><path d="M148.81,434.081l-4.819,8.766c8.041,4.426,16.385,8.37,25.001,11.78l3.683-9.301 C164.45,442.071,156.486,438.306,148.81,434.081z" fill="inherit"/><path d="M106.229,403.111l-6.847,7.291c6.713,6.305,13.822,12.191,21.287,17.621l5.879-8.092 C119.423,414.747,112.636,409.13,106.229,403.111z" fill="inherit"/><path d="M197.77,453.461l-2.488,9.689c8.847,2.261,17.91,3.984,27.152,5.137l1.253-9.922 C214.866,457.264,206.215,455.619,197.77,453.461z" fill="inherit"/><path d="M302.25,453.461l2.488,9.689c8.999-2.3,17.775-5.154,26.29-8.523l-3.683-9.301 C319.217,448.542,310.84,451.266,302.25,453.461z" fill="inherit"/><path d="M351.209,434.081l4.819,8.766c8.101-4.459,15.886-9.416,23.322-14.825l-5.879-8.092 C366.373,425.094,358.942,429.825,351.209,434.081z" fill="inherit"/><path d="M250.01,460v10c9.341,0,18.543-0.586,27.576-1.713l-1.253-9.922C267.71,459.441,258.926,460,250.01,460z" fill="inherit"/><path d="M59.744,188.179l-9.513-3.091c-2.692,8.304-4.881,16.834-6.531,25.556l9.824,1.874 C55.096,204.211,57.18,196.087,59.744,188.179z" fill="inherit"/><path d="M81.095,142.804l-8.446-5.36c-4.704,7.402-8.951,15.121-12.714,23.114l9.051,4.259 C72.571,157.204,76.616,149.853,81.095,142.804z" fill="inherit"/><path d="M113.076,104.18l-6.847-7.291c-6.412,6.023-12.451,12.438-18.066,19.22l7.707,6.376 C101.217,116.026,106.969,109.916,113.076,104.18z" fill="inherit"/><path d="M68.987,335.183l-9.051,4.259c3.764,7.993,8.011,15.712,12.714,23.114l8.446-5.36 C76.616,350.147,72.571,342.796,68.987,335.183z" fill="inherit"/><path d="M50.01,250c0-4.219,0.146-8.404,0.403-12.558l-9.98-0.628c-0.27,4.362-0.423,8.755-0.423,13.185 c0,4.43,0.153,8.824,0.423,13.185l9.98-0.628C50.156,258.404,50.01,254.219,50.01,250z" fill="inherit"/><path d="M53.524,287.482l-9.824,1.874c1.651,8.723,3.839,17.253,6.531,25.556l9.513-3.091 C57.18,303.913,55.096,295.789,53.524,287.482z" fill="inherit"/><path d="M153.629,74.684l-4.819-8.766c-7.733,4.256-15.164,8.988-22.262,14.151l5.879,8.092 C139.187,83.244,146.265,78.738,153.629,74.684z" fill="inherit"/><path d="M346.39,74.684l4.819-8.766c-7.676-4.225-15.64-7.99-23.865-11.244l-3.683,9.301 C331.495,67.075,339.08,70.661,346.39,74.684z" fill="inherit"/><path d="M386.944,104.18l6.847-7.291c-6.407-6.019-13.194-11.637-20.319-16.82l-5.879,8.092 C374.378,93.098,380.841,98.448,386.944,104.18z" fill="inherit"/><path d="M299.762,56.227l2.488-9.689c-8.445-2.158-17.096-3.803-25.917-4.904l-1.253,9.922 C283.48,52.606,291.719,54.172,299.762,56.227z" fill="inherit"/><path d="M200.257,56.227l-2.488-9.689c-8.59,2.195-16.967,4.919-25.095,8.136l3.683,9.301 C184.098,60.913,192.076,58.318,200.257,56.227z" fill="inherit"/><path d="M250.01,50V40c-8.916,0-17.7,0.559-26.323,1.635l1.253,9.922C233.152,50.533,241.518,50,250.01,50z" fill="inherit"/><path d="M446.496,287.482l9.824,1.874c1.618-8.551,2.718-17.285,3.267-26.17l-9.98-0.628 C449.084,271.02,448.037,279.338,446.496,287.482z" fill="inherit"/><path d="M431.033,335.183l9.051,4.259c3.728-7.918,6.974-16.107,9.705-24.53l-9.513-3.091 C437.675,319.843,434.583,327.642,431.033,335.183z" fill="inherit"/><path d="M404.149,377.515l7.707,6.376c5.602-6.766,10.784-13.892,15.513-21.335l-8.446-5.36 C414.42,364.285,409.484,371.071,404.149,377.515z" fill="inherit"/><path d="M404.149,122.485c5.335,6.444,10.27,13.231,14.775,20.319l8.446-5.36 c-4.73-7.443-9.911-14.569-15.514-21.335L404.149,122.485z" fill="inherit"/><path d="M95.87,377.515l-7.707,6.376c5.615,6.781,11.654,13.197,18.066,19.22l6.847-7.291 C106.969,390.084,101.217,383.974,95.87,377.515z" fill="inherit"/><path d="M449.607,237.442l9.98-0.628c-0.549-8.885-1.649-17.62-3.267-26.17l-9.824,1.874 C448.037,220.662,449.084,228.98,449.607,237.442z" fill="inherit"/><path d="M440.275,188.179l9.513-3.091c-2.731-8.423-5.977-16.612-9.705-24.53l-9.051,4.259 C434.583,172.358,437.675,180.157,440.275,188.179z" fill="inherit"/><path d="M176.357,436.024l-3.683,9.301c8.128,3.216,16.505,5.941,25.095,8.136l2.488-9.689 C192.076,441.682,184.098,439.087,176.357,436.024z" fill="inherit"/><path d="M132.427,411.839l-5.879,8.092c7.098,5.163,14.53,9.895,22.262,14.151l4.819-8.766 C146.265,421.262,139.187,416.756,132.427,411.839z" fill="inherit"/><path d="M224.941,448.443l-1.253,9.922c8.622,1.076,17.406,1.635,26.323,1.635v-10 C241.518,450,233.152,449.467,224.941,448.443z" fill="inherit"/><path d="M323.662,436.024l3.683,9.301c8.224-3.255,16.189-7.019,23.865-11.244l-4.819-8.766 C339.08,429.339,331.495,432.925,323.662,436.024z" fill="inherit"/><path d="M367.592,411.839l5.879,8.092c7.125-5.183,13.912-10.801,20.319-16.82l-6.847-7.291 C380.841,401.552,374.378,406.902,367.592,411.839z" fill="inherit"/><path d="M275.079,448.443l1.253,9.922c8.821-1.101,17.473-2.746,25.917-4.904l-2.488-9.689 C291.719,445.828,283.48,447.394,275.079,448.443z" fill="inherit"/><path d="M78.038,169.076l-9.051-4.259c-3.551,7.541-6.642,15.34-9.243,23.362l9.513,3.091 C71.728,183.649,74.665,176.24,78.038,169.076z" fill="inherit"/><path d="M63.348,214.392l-9.824-1.874c-1.541,8.144-2.588,16.462-3.111,24.924l9.98,0.628 C60.889,230.031,61.884,222.129,63.348,214.392z" fill="inherit"/><path d="M103.577,128.86l-7.707-6.376c-5.335,6.444-10.27,13.231-14.775,20.319l8.446,5.36 C93.82,141.43,98.509,134.982,103.577,128.86z" fill="inherit"/><path d="M69.257,308.73l-9.513,3.091c2.601,8.022,5.692,15.821,9.243,23.362l9.051-4.259 C74.665,323.76,71.728,316.351,69.257,308.73z" fill="inherit"/><path d="M89.541,351.836l-8.446,5.36c4.504,7.088,9.44,13.875,14.775,20.319l7.707-6.376 C98.509,365.018,93.82,358.57,89.541,351.836z" fill="inherit"/><path d="M60.392,261.93l-9.98,0.628c0.523,8.462,1.57,16.78,3.111,24.924l9.824-1.874 C61.884,277.871,60.889,269.969,60.392,261.93z" fill="inherit"/><path d="M138.306,96.253l-5.879-8.092c-6.786,4.936-13.249,10.287-19.351,16.019l6.847,7.291 C125.72,106.026,131.86,100.943,138.306,96.253z" fill="inherit"/><path d="M319.979,73.277l3.683-9.301c-7.741-3.063-15.719-5.658-23.9-7.748l-2.488,9.689 C305.046,67.902,312.626,70.367,319.979,73.277z" fill="inherit"/><path d="M361.713,96.253l5.879-8.092c-6.76-4.917-13.838-9.424-21.202-13.477l-4.819,8.766 C348.567,87.301,355.291,91.582,361.713,96.253z" fill="inherit"/><path d="M273.825,61.479l1.253-9.922C266.867,50.533,258.501,50,250.01,50v10 C258.077,60,266.024,60.506,273.825,61.479z" fill="inherit"/><path d="M180.04,73.277l-3.683-9.301c-7.833,3.1-15.418,6.685-22.728,10.709l4.819,8.766 C165.393,79.628,172.599,76.222,180.04,73.277z" fill="inherit"/><path d="M226.194,61.479l-1.253-9.922c-8.401,1.048-16.64,2.615-24.683,4.67l2.488,9.689 C210.386,63.964,218.213,62.475,226.194,61.479z" fill="inherit"/><path d="M430.762,308.73l9.513,3.091c2.564-7.908,4.648-16.032,6.22-24.339l-9.824-1.874 C435.178,293.5,433.198,301.217,430.762,308.73z" fill="inherit"/><path d="M440.01,250c0,4.008-0.139,7.983-0.383,11.93l9.98,0.628c0.257-4.154,0.403-8.338,0.403-12.558 s-0.146-8.404-0.403-12.558l-9.98,0.628C439.871,242.017,440.01,245.992,440.01,250z" fill="inherit"/><path d="M119.922,388.529l-6.847,7.291c6.102,5.732,12.566,11.082,19.351,16.019l5.879-8.092 C131.86,399.057,125.72,393.974,119.922,388.529z" fill="inherit"/><path d="M380.097,388.529l6.847,7.291c6.107-5.736,11.858-11.846,17.206-18.305l-7.707-6.376 C391.362,377.275,385.899,383.079,380.097,388.529z" fill="inherit"/><path d="M421.982,169.076l9.051-4.259c-3.584-7.613-7.629-14.964-12.109-22.013l-8.446,5.36 C414.734,154.86,418.576,161.844,421.982,169.076z" fill="inherit"/><path d="M436.671,214.392l9.824-1.874c-1.572-8.307-3.656-16.431-6.22-24.339l-9.513,3.091 C433.198,198.783,435.178,206.5,436.671,214.392z" fill="inherit"/><path d="M410.478,351.836l8.446,5.36c4.48-7.049,8.524-14.401,12.109-22.013l-9.051-4.259 C418.576,338.156,414.734,345.14,410.478,351.836z" fill="inherit"/><path d="M202.745,434.084l-2.488,9.689c8.043,2.055,16.282,3.622,24.683,4.67l1.253-9.922 C218.213,437.525,210.386,436.036,202.745,434.084z" fill="inherit"/><path d="M158.448,416.55l-4.819,8.766c7.31,4.024,14.895,7.609,22.728,10.709l3.683-9.301 C172.599,423.778,165.393,420.372,158.448,416.55z" fill="inherit"/><path d="M250.01,440v10c8.492,0,16.857-0.533,25.069-1.557l-1.253-9.922C266.024,439.494,258.077,440,250.01,440z" fill="inherit"/><path d="M341.571,416.55l4.819,8.766c7.364-4.053,14.442-8.56,21.202-13.477l-5.879-8.092 C355.291,408.418,348.567,412.699,341.571,416.55z" fill="inherit"/><path d="M386.944,104.18l-6.847,7.291c5.802,5.45,11.265,11.254,16.345,17.389l7.707-6.376 C398.802,116.026,393.051,109.916,386.944,104.18z" fill="inherit"/><path d="M297.274,434.084l2.488,9.689c8.181-2.091,16.159-4.685,23.9-7.748l-3.683-9.301 C312.626,429.633,305.046,432.098,297.274,434.084z" fill="inherit"/><path d="M78.771,194.361l-9.513-3.091c-2.436,7.513-4.416,15.23-5.909,23.122l9.824,1.874 C74.587,208.79,76.463,201.478,78.771,194.361z" fill="inherit"/><path d="M126.769,118.762l-6.847-7.291c-5.802,5.45-11.265,11.254-16.345,17.389l7.707,6.376 C116.097,129.424,121.273,123.925,126.769,118.762z" fill="inherit"/><path d="M97.987,153.523l-8.446-5.36c-4.256,6.697-8.098,13.681-11.503,20.913l9.051,4.259 C90.315,166.484,93.955,159.867,97.987,153.523z" fill="inherit"/><path d="M73.172,283.734l-9.824,1.874c1.493,7.892,3.474,15.61,5.909,23.122l9.513-3.091 C76.463,298.522,74.587,291.21,73.172,283.734z" fill="inherit"/><path d="M87.089,326.665l-9.051,4.259c3.405,7.232,7.248,14.216,11.503,20.913l8.446-5.36 C93.955,340.132,90.315,333.516,87.089,326.665z" fill="inherit"/><path d="M111.284,364.764l-7.707,6.376c5.08,6.136,10.544,11.94,16.345,17.389l6.847-7.291 C121.273,376.075,116.097,370.576,111.284,364.764z" fill="inherit"/><path d="M70.01,250c0-3.797,0.131-7.563,0.363-11.302l-9.98-0.628c-0.244,3.946-0.383,7.921-0.383,11.93 c0,4.008,0.139,7.983,0.383,11.93l9.98-0.628C70.141,257.563,70.01,253.797,70.01,250z" fill="inherit"/><path d="M336.752,92.216l4.819-8.766c-6.945-3.822-14.151-7.229-21.592-10.173l-3.683,9.301 C323.346,85.368,330.173,88.595,336.752,92.216z" fill="inherit"/><path d="M294.787,75.605l2.488-9.689c-7.641-1.952-15.468-3.441-23.449-4.437l-1.253,9.922 C280.133,72.345,287.548,73.755,294.787,75.605z" fill="inherit"/><path d="M205.233,75.605l-2.488-9.689c-7.772,1.986-15.351,4.451-22.705,7.361l3.683,9.301 C190.689,79.821,197.87,77.486,205.233,75.605z" fill="inherit"/><path d="M250.01,70V60c-8.067,0-16.015,0.506-23.816,1.479l1.253,9.922C234.838,70.479,242.367,70,250.01,70z" fill="inherit"/><path d="M163.267,92.216l-4.819-8.766c-6.996,3.851-13.72,8.132-20.142,12.803l5.879,8.092 C150.269,99.92,156.639,95.864,163.267,92.216z" fill="inherit"/><path d="M227.447,428.599l-1.253,9.922c7.801,0.973,15.749,1.479,23.816,1.479v-10 C242.367,430,234.838,429.521,227.447,428.599z" fill="inherit"/><path d="M426.847,283.734l9.824,1.874c1.464-7.736,2.459-15.639,2.956-23.678l-9.98-0.628 C429.176,268.918,428.234,276.404,426.847,283.734z" fill="inherit"/><path d="M412.93,326.665l9.051,4.259c3.373-7.164,6.31-14.573,8.781-22.194l-9.513-3.091 C418.908,312.859,416.126,319.878,412.93,326.665z" fill="inherit"/><path d="M144.185,395.655l-5.879,8.092c6.422,4.671,13.146,8.952,20.142,12.803l4.819-8.766 C156.639,404.136,150.269,400.08,144.185,395.655z" fill="inherit"/><path d="M355.834,104.345c6.107,4.443,11.924,9.258,17.416,14.417l6.847-7.291 c-5.797-5.446-11.937-10.528-18.384-15.218L355.834,104.345z" fill="inherit"/><path d="M421.249,194.361l9.513-3.091c-2.471-7.621-5.407-15.03-8.78-22.194l-9.051,4.259 C416.126,180.122,418.908,187.141,421.249,194.361z" fill="inherit"/><path d="M402.033,153.523l8.446-5.36c-4.279-6.734-8.968-13.181-14.036-19.303l-7.707,6.376 C393.537,141.036,397.979,147.144,402.033,153.523z" fill="inherit"/><path d="M429.647,238.698l9.98-0.628c-0.497-8.039-1.492-15.941-2.956-23.678l-9.824,1.874 C428.234,223.596,429.176,231.082,429.647,238.698z" fill="inherit"/><path d="M183.723,417.422l-3.683,9.301c7.354,2.91,14.933,5.375,22.705,7.361l2.488-9.689 C197.87,422.514,190.689,420.179,183.723,417.422z" fill="inherit"/><path d="M272.572,428.599l1.253,9.922c7.981-0.996,15.808-2.484,23.449-4.437l-2.488-9.689 C287.548,426.245,280.133,427.655,272.572,428.599z" fill="inherit"/><path d="M388.735,364.764l7.707,6.376c5.068-6.122,9.757-12.569,14.036-19.303l-8.446-5.36 C397.979,352.856,393.537,358.964,388.735,364.764z" fill="inherit"/><path d="M355.834,395.655l5.879,8.092c6.447-4.689,12.587-9.772,18.384-15.218l-6.847-7.291 C367.758,386.397,361.941,391.212,355.834,395.655z" fill="inherit"/><path d="M316.297,417.422l3.683,9.301c7.441-2.945,14.647-6.351,21.592-10.173l-4.819-8.766 C330.173,411.405,323.346,414.632,316.297,417.422z" fill="inherit"/><path d="M96.14,177.594l-9.051-4.259c-3.195,6.787-5.978,13.806-8.318,21.026l9.513,3.091 C90.494,190.633,93.122,184.004,96.14,177.594z" fill="inherit"/><path d="M82.997,218.141l-9.824-1.874c-1.387,7.329-2.329,14.816-2.8,22.432l9.98,0.628 C80.797,232.133,81.687,225.063,82.997,218.141z" fill="inherit"/><path d="M80.352,260.674l-9.98,0.628c0.471,7.616,1.413,15.103,2.8,22.432l9.824-1.874 C81.687,274.937,80.797,267.867,80.352,260.674z" fill="inherit"/><path d="M133.616,373.947l-6.847,7.291c5.492,5.159,11.309,9.974,17.416,14.417l5.879-8.092 C144.296,383.367,138.803,378.819,133.616,373.947z" fill="inherit"/><path d="M106.433,341.117l-8.446,5.36c4.054,6.379,8.496,12.487,13.297,18.287l7.707-6.376 C114.456,352.911,110.261,347.142,106.433,341.117z" fill="inherit"/><path d="M88.284,302.548l-9.513,3.091c2.341,7.22,5.123,14.239,8.318,21.026l9.051-4.259 C93.122,315.996,90.494,309.367,88.284,302.548z" fill="inherit"/><path d="M312.614,91.879l3.683-9.301c-6.967-2.757-14.147-5.092-21.51-6.973l-2.488,9.689 C299.253,87.07,306.034,89.276,312.614,91.879z" fill="inherit"/><path d="M271.318,81.324l1.253-9.922C265.181,70.479,257.652,70,250.01,70v10 C257.228,80,264.338,80.453,271.318,81.324z" fill="inherit"/><path d="M118.991,141.612l-7.707-6.376c-4.802,5.8-9.243,11.908-13.297,18.287l8.446,5.36 C110.261,152.858,114.456,147.089,118.991,141.612z" fill="inherit"/><path d="M150.064,112.437l-5.879-8.092c-6.107,4.443-11.924,9.258-17.416,14.417l6.847,7.291 C138.803,121.181,144.296,116.633,150.064,112.437z" fill="inherit"/><path d="M187.405,91.879l-3.683-9.301c-7.05,2.79-13.876,6.017-20.456,9.638l4.819,8.766 C174.3,97.562,180.747,94.514,187.405,91.879z" fill="inherit"/><path d="M228.701,81.324l-1.253-9.922c-7.561,0.944-14.976,2.353-22.215,4.203l2.488,9.689 C214.557,83.546,221.56,82.215,228.701,81.324z" fill="inherit"/><path d="M420.01,250c0,3.586-0.124,7.143-0.342,10.674l9.98,0.628c0.231-3.739,0.362-7.504,0.362-11.302 s-0.131-7.563-0.362-11.302l-9.98,0.628C419.886,242.857,420.01,246.414,420.01,250z" fill="inherit"/><path d="M417.023,218.141l9.824-1.874c-1.415-7.477-3.291-14.788-5.598-21.905l-9.513,3.091 C413.915,204.174,415.687,211.079,417.023,218.141z" fill="inherit"/><path d="M411.736,302.548l9.513,3.091c2.307-7.117,4.183-14.429,5.598-21.905l-9.824-1.874 C415.687,288.921,413.915,295.826,411.736,302.548z" fill="inherit"/><path d="M168.086,399.018l-4.819,8.766c6.579,3.621,13.406,6.848,20.456,9.638l3.683-9.301 C180.747,405.486,174.3,402.438,168.086,399.018z" fill="inherit"/><path d="M403.879,177.594l9.051-4.259c-3.226-6.851-6.866-13.468-10.898-19.812l-8.446,5.36 C397.394,164.875,400.833,171.124,403.879,177.594z" fill="inherit"/><path d="M331.933,100.982c6.26,3.445,12.276,7.276,18.022,11.455l5.879-8.092 c-6.084-4.426-12.454-8.481-19.082-12.129L331.933,100.982z" fill="inherit"/><path d="M381.028,141.612l7.707-6.376c-4.813-5.813-9.989-11.311-15.485-16.474l-6.847,7.291 C371.594,130.929,376.483,136.122,381.028,141.612z" fill="inherit"/><path d="M250.01,420v10c7.643,0,15.172-0.479,22.562-1.401l-1.253-9.922C264.338,419.547,257.228,420,250.01,420z" fill="inherit"/><path d="M393.587,341.117l8.446,5.36c4.032-6.344,7.672-12.961,10.898-19.812l-9.051-4.259 C400.833,328.876,397.394,335.125,393.587,341.117z" fill="inherit"/><path d="M207.72,414.707l-2.488,9.689c7.239,1.85,14.654,3.26,22.215,4.203l1.253-9.922 C221.56,417.785,214.557,416.454,207.72,414.707z" fill="inherit"/><path d="M366.404,373.947l6.847,7.291c5.496-5.163,10.672-10.662,15.485-16.474l-7.707-6.376 C376.483,363.878,371.594,369.071,366.404,373.947z" fill="inherit"/><path d="M292.299,414.707l2.488,9.689c7.363-1.882,14.543-4.217,21.51-6.973l-3.683-9.301 C306.034,410.724,299.253,412.93,292.299,414.707z" fill="inherit"/><path d="M331.933,399.018l4.819,8.766c6.628-3.648,12.998-7.704,19.082-12.129l-5.879-8.092 C344.209,391.743,338.193,395.573,331.933,399.018z" fill="inherit"/><path d="M90.01,250c0-3.375,0.117-6.723,0.322-10.046l-9.98-0.628c-0.218,3.531-0.342,7.088-0.342,10.674 s0.124,7.143,0.342,10.674l9.98-0.628C90.126,256.723,90.01,253.375,90.01,250z" fill="inherit"/><path d="M97.797,200.543l-9.513-3.091c-2.179,6.722-3.951,13.627-5.287,20.688l9.824,1.874 C94.079,213.369,95.746,206.87,97.797,200.543z" fill="inherit"/><path d="M92.821,279.985l-9.824,1.874c1.336,7.061,3.108,13.966,5.287,20.688l9.513-3.091 C95.746,293.13,94.079,286.631,92.821,279.985z" fill="inherit"/><path d="M155.944,379.471l-5.879,8.092c5.746,4.18,11.762,8.01,18.022,11.456l4.819-8.766 C167.014,387.01,161.352,383.405,155.944,379.471z" fill="inherit"/><path d="M105.191,318.146l-9.051,4.259c3.047,6.471,6.485,12.72,10.292,18.711l8.446-5.36 C111.295,330.118,108.059,324.237,105.191,318.146z" fill="inherit"/><path d="M126.698,352.012l-7.707,6.376c4.545,5.49,9.434,10.683,14.625,15.559l6.847-7.291 C135.577,362.067,130.976,357.179,126.698,352.012z" fill="inherit"/><path d="M289.812,94.982l2.488-9.689c-6.836-1.747-13.84-3.079-20.981-3.97l-1.253,9.922 C276.786,92.084,283.377,93.338,289.812,94.982z" fill="inherit"/><path d="M250.01,90V80c-7.218,0-14.329,0.453-21.309,1.324l1.253,9.922C236.524,90.426,243.216,90,250.01,90z" fill="inherit"/><path d="M114.878,164.243l-8.446-5.36c-3.808,5.992-7.246,12.24-10.292,18.711l9.051,4.259 C108.059,175.763,111.295,169.882,114.878,164.243z" fill="inherit"/><path d="M140.463,133.344l-6.847-7.291c-5.191,4.876-10.08,10.069-14.625,15.559l7.707,6.376 C130.976,142.821,135.577,137.933,140.463,133.344z" fill="inherit"/><path d="M210.208,94.982l-2.488-9.689c-6.954,1.777-13.735,3.982-20.315,6.586l3.683,9.301 C197.281,98.73,203.663,96.654,210.208,94.982z" fill="inherit"/><path d="M172.905,109.748l-4.819-8.766c-6.26,3.445-12.276,7.276-18.022,11.455l5.879,8.092 C161.352,116.595,167.014,112.99,172.905,109.748z" fill="inherit"/><path d="M270.065,408.754l1.253,9.922c7.141-0.891,14.144-2.223,20.981-3.97l-2.488-9.689 C283.377,406.662,276.786,407.916,270.065,408.754z" fill="inherit"/><path d="M409.687,239.954l9.98-0.628c-0.445-7.193-1.335-14.263-2.645-21.186l-9.824,1.874 C408.431,226.529,409.269,233.184,409.687,239.954z" fill="inherit"/><path d="M407.198,279.985l9.824,1.874c1.31-6.922,2.2-13.993,2.645-21.185l-9.98-0.628 C409.269,266.816,408.431,273.471,407.198,279.985z" fill="inherit"/><path d="M402.222,200.543l9.513-3.091c-2.211-6.819-4.838-13.448-7.856-19.858l-9.051,4.259 C397.669,187.886,400.142,194.125,402.222,200.543z" fill="inherit"/><path d="M308.931,101.181c6.266,2.48,12.335,5.348,18.183,8.567l4.819-8.766c-6.214-3.42-12.661-6.468-19.319-9.102 L308.931,101.181z" fill="inherit"/><path d="M359.557,133.344l6.847-7.291c-5.187-4.872-10.681-9.42-16.449-13.616l-5.879,8.092 C349.505,124.478,354.675,128.758,359.557,133.344z" fill="inherit"/><path d="M385.141,164.243l8.446-5.36c-3.829-6.025-8.023-11.794-12.559-17.271l-7.707,6.376 C377.59,153.143,381.538,158.572,385.141,164.243z" fill="inherit"/><path d="M191.088,398.819l-3.683,9.301c6.58,2.604,13.361,4.809,20.315,6.586l2.488-9.689 C203.663,403.346,197.281,401.27,191.088,398.819z" fill="inherit"/><path d="M229.954,408.754l-1.253,9.922c6.98,0.871,14.091,1.324,21.309,1.324v-10 C243.216,410,236.524,409.574,229.954,408.754z" fill="inherit"/><path d="M308.931,398.819l3.683,9.301c6.658-2.635,13.105-5.682,19.319-9.102l-4.819-8.766 C321.266,393.471,315.198,396.34,308.931,398.819z" fill="inherit"/><path d="M394.828,318.146l9.051,4.259c3.018-6.41,5.646-13.039,7.856-19.858l-9.513-3.091 C400.142,305.875,397.669,312.114,394.828,318.146z" fill="inherit"/><path d="M373.321,352.012l7.707,6.376c4.535-5.477,8.73-11.246,12.559-17.271l-8.446-5.36 C381.538,341.428,377.59,346.857,373.321,352.012z" fill="inherit"/><path d="M344.076,379.471l5.879,8.092c5.768-4.196,11.262-8.744,16.449-13.616l-6.847-7.291 C354.675,371.242,349.505,375.522,344.076,379.471z" fill="inherit"/><path d="M107.31,296.366l-9.513,3.091c2.081,6.418,4.554,12.657,7.394,18.69l9.051-4.259 C111.579,308.232,109.261,302.383,107.31,296.366z" fill="inherit"/><path d="M102.645,221.889l-9.824-1.874c-1.233,6.515-2.07,13.169-2.489,19.939l9.98,0.628 C100.704,234.235,101.489,227.996,102.645,221.889z" fill="inherit"/><path d="M100.312,259.418l-9.98,0.628c0.419,6.77,1.256,13.424,2.489,19.939l9.824-1.874 C101.489,272.004,100.704,265.765,100.312,259.418z" fill="inherit"/><path d="M177.724,381.487l-4.819,8.766c5.848,3.219,11.916,6.087,18.183,8.567l3.683-9.301 C188.896,387.194,183.207,384.504,177.724,381.487z" fill="inherit"/><path d="M147.309,359.365l-6.847,7.291c4.882,4.586,10.052,8.866,15.481,12.815l5.879-8.092 C156.733,367.677,151.886,363.664,147.309,359.365z" fill="inherit"/><path d="M123.324,330.397l-8.446,5.36c3.604,5.671,7.552,11.1,11.82,16.255l7.707-6.376 C130.404,340.803,126.702,335.713,123.324,330.397z" fill="inherit"/><path d="M231.208,101.168l-1.253-9.922c-6.721,0.839-13.312,2.092-19.747,3.736l2.488,9.689 C218.727,103.129,224.907,101.954,231.208,101.168z" fill="inherit"/><path d="M268.812,101.168l1.253-9.922C263.496,90.426,256.803,90,250.01,90v10 C256.378,100,262.653,100.399,268.812,101.168z" fill="inherit"/><path d="M114.242,186.113l-9.051-4.259c-2.84,6.033-5.314,12.272-7.394,18.689l9.513,3.091 C109.261,197.617,111.579,191.768,114.242,186.113z" fill="inherit"/><path d="M194.771,110.482l-3.683-9.301c-6.266,2.48-12.335,5.348-18.183,8.567l4.819,8.766 C183.207,115.496,188.896,112.806,194.771,110.482z" fill="inherit"/><path d="M134.405,154.364l-7.707-6.376c-4.268,5.155-8.216,10.585-11.82,16.255l8.446,5.36 C126.702,164.287,130.404,159.197,134.405,154.364z" fill="inherit"/><path d="M161.823,128.621l-5.879-8.092c-5.429,3.949-10.599,8.229-15.481,12.815l6.847,7.291 C151.886,136.336,156.733,132.323,161.823,128.621z" fill="inherit"/><path d="M365.614,154.364l7.707-6.376c-4.278-5.167-8.879-10.055-13.764-14.644l-6.847,7.291 C357.29,144.937,361.604,149.52,365.614,154.364z" fill="inherit"/><path d="M397.374,221.889l9.824-1.874c-1.258-6.646-2.925-13.145-4.976-19.471l-9.513,3.091 C394.632,209.565,396.195,215.658,397.374,221.889z" fill="inherit"/><path d="M400.01,250c0,3.165-0.11,6.303-0.302,9.418l9.98,0.628c0.205-3.323,0.322-6.671,0.322-10.046 s-0.117-6.723-0.322-10.046l-9.98,0.628C399.9,243.697,400.01,246.836,400.01,250z" fill="inherit"/><path d="M392.709,296.366l9.513,3.091c2.051-6.327,3.719-12.826,4.976-19.471l-9.824-1.874 C396.195,284.342,394.632,290.435,392.709,296.366z" fill="inherit"/><path d="M212.695,395.329l-2.488,9.689c6.434,1.644,13.025,2.898,19.747,3.736l1.253-9.922 C224.907,398.046,218.727,396.871,212.695,395.329z" fill="inherit"/><path d="M287.324,104.671c6.136,1.568,12.119,3.514,17.925,5.811l3.683-9.301 c-6.193-2.451-12.575-4.526-19.12-6.199L287.324,104.671z" fill="inherit"/><path d="M338.197,128.621l5.879-8.092c-5.408-3.934-11.07-7.539-16.962-10.782l-4.819,8.766 C327.818,121.553,333.127,124.933,338.197,128.621z" fill="inherit"/><path d="M385.777,186.113l9.051-4.259c-2.868-6.09-6.103-11.971-9.687-17.611l-8.446,5.36 C380.055,174.89,383.089,180.403,385.777,186.113z" fill="inherit"/><path d="M287.324,395.329l2.488,9.689c6.545-1.672,12.927-3.748,19.12-6.199l-3.683-9.301 C299.443,391.816,293.46,393.762,287.324,395.329z" fill="inherit"/><path d="M322.295,381.487l4.819,8.766c5.892-3.243,11.554-6.848,16.962-10.782l-5.879-8.092 C333.127,375.067,327.818,378.447,322.295,381.487z" fill="inherit"/><path d="M250.01,400v10c6.793,0,13.486-0.426,20.055-1.246l-1.253-9.922C262.653,399.601,256.378,400,250.01,400z" fill="inherit"/><path d="M376.695,330.397l8.446,5.36c3.584-5.639,6.819-11.521,9.687-17.611l-9.051-4.259 C383.089,319.597,380.055,325.11,376.695,330.397z" fill="inherit"/><path d="M352.71,359.365l6.847,7.291c4.886-4.589,9.487-9.477,13.764-14.644l-7.707-6.376 C361.604,350.48,357.29,355.063,352.71,359.365z" fill="inherit"/><path d="M112.47,276.237l-9.824,1.874c1.179,6.231,2.742,12.323,4.665,18.255l9.513-3.091 C115.029,287.739,113.57,282.052,112.47,276.237z" fill="inherit"/><path d="M123.294,309.628l-9.051,4.259c2.688,5.71,5.722,11.223,9.082,16.51l8.446-5.36 C128.634,320.103,125.803,314.957,123.294,309.628z" fill="inherit"/><path d="M110.01,250c0-2.954,0.102-5.882,0.282-8.79l-9.98-0.628c-0.193,3.115-0.302,6.254-0.302,9.418 c0,3.165,0.11,6.303,0.302,9.418l9.98-0.628C110.112,255.883,110.01,252.954,110.01,250z" fill="inherit"/><path d="M167.702,363.287l-5.879,8.092c5.07,3.688,10.378,7.068,15.902,10.108l4.819-8.766 C177.388,369.884,172.434,366.729,167.702,363.287z" fill="inherit"/><path d="M142.112,339.261l-7.707,6.376c4.01,4.844,8.324,9.426,12.904,13.728l6.847-7.291 C149.881,348.058,145.855,343.782,142.112,339.261z" fill="inherit"/><path d="M198.453,380.217l-3.683,9.301c5.806,2.297,11.789,4.243,17.925,5.811l2.488-9.689 C209.456,384.177,203.872,382.361,198.453,380.217z" fill="inherit"/><path d="M250.01,110v-10c-6.369,0-12.643,0.399-18.802,1.168l1.253,9.922C238.21,110.373,244.065,110,250.01,110z" fill="inherit"/><path d="M116.824,206.725l-9.513-3.091c-1.923,5.931-3.486,12.024-4.665,18.255l9.824,1.874 C113.57,217.948,115.029,212.261,116.824,206.725z" fill="inherit"/><path d="M182.543,127.279l-4.819-8.766c-5.523,3.04-10.832,6.42-15.902,10.108l5.879,8.092 C172.434,133.271,177.388,130.116,182.543,127.279z" fill="inherit"/><path d="M215.183,114.359l-2.488-9.689c-6.136,1.568-12.119,3.514-17.925,5.811l3.683,9.301 C203.872,117.639,209.456,115.823,215.183,114.359z" fill="inherit"/><path d="M131.77,174.963l-8.446-5.36c-3.36,5.287-6.393,10.8-9.082,16.51l9.051,4.259 C125.803,185.043,128.634,179.897,131.77,174.963z" fill="inherit"/><path d="M154.156,147.926l-6.847-7.291c-4.58,4.302-8.894,8.885-12.904,13.728l7.707,6.376 C145.855,156.218,149.881,151.942,154.156,147.926z" fill="inherit"/><path d="M301.566,380.217l3.683,9.301c5.875-2.325,11.564-5.014,17.046-8.032l-4.819-8.766 C312.359,375.537,307.049,378.047,301.566,380.217z" fill="inherit"/><path d="M368.25,174.963l8.446-5.36c-3.378-5.316-7.08-10.406-11.081-15.239l-7.707,6.376 C361.642,165.25,365.097,170.001,368.25,174.963z" fill="inherit"/><path d="M389.728,241.21l9.98-0.628c-0.392-6.347-1.178-12.585-2.333-18.693l-9.824,1.874 C388.629,229.463,389.361,235.286,389.728,241.21z" fill="inherit"/><path d="M387.55,276.237l9.824,1.874c1.156-6.108,1.941-12.346,2.333-18.693l-9.98-0.628 C389.361,264.714,388.629,270.537,387.55,276.237z" fill="inherit"/><path d="M232.461,388.91l-1.253,9.922c6.159,0.768,12.433,1.168,18.802,1.168v-10 C244.065,390,238.21,389.627,232.461,388.91z" fill="inherit"/><path d="M317.476,127.279l4.819-8.766c-5.483-3.018-11.172-5.707-17.046-8.032l-3.683,9.301 C307.049,121.953,312.359,124.463,317.476,127.279z" fill="inherit"/><path d="M345.863,147.926l6.847-7.291c-4.577-4.299-9.424-8.312-14.514-12.014l-5.879,8.092 C337.068,140.168,341.592,143.914,345.863,147.926z" fill="inherit"/><path d="M383.196,206.725l9.513-3.091c-1.951-6.017-4.269-11.866-6.932-17.521l-9.051,4.259 C379.211,195.65,381.375,201.11,383.196,206.725z" fill="inherit"/><path d="M267.558,388.91l1.253,9.922c6.301-0.786,12.48-1.961,18.512-3.503l-2.488-9.689 C279.206,387.079,273.439,388.176,267.558,388.91z" fill="inherit"/><path d="M267.558,111.09c5.881,0.734,11.648,1.83,17.278,3.269l2.488-9.689c-6.032-1.541-12.211-2.716-18.512-3.503 L267.558,111.09z" fill="inherit"/><path d="M332.318,363.287l5.879,8.092c5.089-3.702,9.937-7.715,14.514-12.014l-6.847-7.291 C341.592,356.086,337.068,359.832,332.318,363.287z" fill="inherit"/><path d="M376.726,309.628l9.051,4.259c2.663-5.656,4.982-11.505,6.932-17.521l-9.513-3.091 C381.375,298.89,379.211,304.35,376.726,309.628z" fill="inherit"/><path d="M357.907,339.261l7.707,6.376c4.001-4.833,7.703-9.923,11.081-15.239l-8.446-5.36 C365.097,329.999,361.642,334.75,357.907,339.261z" fill="inherit"/><path d="M126.337,290.184l-9.513,3.091c1.821,5.616,3.984,11.075,6.47,16.353l9.051-4.259 C130.037,300.467,128.027,295.398,126.337,290.184z" fill="inherit"/><path d="M140.215,319.678l-8.446,5.36c3.153,4.962,6.608,9.712,10.342,14.223l7.707-6.376 C146.351,328.696,143.143,324.285,140.215,319.678z" fill="inherit"/><path d="M120.272,258.162l-9.98,0.628c0.366,5.924,1.099,11.746,2.178,17.447l9.824-1.874 C121.292,269.07,120.612,263.663,120.272,258.162z" fill="inherit"/><path d="M217.671,375.952l-2.488,9.689c5.63,1.439,11.397,2.535,17.278,3.269l1.253-9.922 C228.254,378.306,222.899,377.288,217.671,375.952z" fill="inherit"/><path d="M187.362,363.955l-4.819,8.766c5.117,2.816,10.427,5.326,15.91,7.496l3.683-9.301 C197.044,368.901,192.114,366.57,187.362,363.955z" fill="inherit"/><path d="M161.003,344.783l-6.847,7.291c4.272,4.012,8.796,7.758,13.546,11.213l5.879-8.092 C169.17,351.987,164.969,348.509,161.003,344.783z" fill="inherit"/><path d="M233.715,121.012l-1.253-9.922c-5.881,0.734-11.648,1.83-17.278,3.269l2.488,9.689 C222.899,122.712,228.254,121.694,233.715,121.012z" fill="inherit"/><path d="M202.136,129.084l-3.683-9.301c-5.483,2.17-10.793,4.68-15.91,7.496l4.819,8.766 C192.114,133.43,197.044,131.099,202.136,129.084z" fill="inherit"/><path d="M132.345,194.631l-9.051-4.259c-2.485,5.278-4.649,10.738-6.47,16.353l9.513,3.091 C128.027,204.602,130.037,199.533,132.345,194.631z" fill="inherit"/><path d="M173.581,144.805l-5.879-8.092c-4.75,3.455-9.274,7.201-13.546,11.213l6.847,7.291 C164.969,151.491,169.17,148.013,173.581,144.805z" fill="inherit"/><path d="M149.819,167.115l-7.707-6.376c-3.735,4.511-7.189,9.261-10.342,14.223l8.446,5.36 C143.143,175.715,146.351,171.304,149.819,167.115z" fill="inherit"/><path d="M122.294,225.637l-9.824-1.874c-1.079,5.701-1.812,11.523-2.178,17.447l9.98,0.628 C120.612,236.337,121.292,230.93,122.294,225.637z" fill="inherit"/><path d="M350.2,167.115l7.707-6.376c-3.743-4.521-7.769-8.798-12.044-12.813l-6.847,7.291 C342.986,158.946,346.725,162.917,350.2,167.115z" fill="inherit"/><path d="M367.675,194.631l9.051-4.259c-2.509-5.329-5.34-10.475-8.476-15.409l-8.446,5.36 C362.716,184.904,365.345,189.683,367.675,194.631z" fill="inherit"/><path d="M377.726,225.637l9.824-1.874c-1.1-5.815-2.56-11.502-4.354-17.038l-9.513,3.091 C375.349,214.957,376.704,220.237,377.726,225.637z" fill="inherit"/><path d="M297.884,129.084l3.683-9.301c-5.419-2.144-11.003-3.96-16.73-5.424l-2.488,9.689 C287.666,125.407,292.852,127.093,297.884,129.084z" fill="inherit"/><path d="M250.01,380v10c5.944,0,11.8-0.373,17.548-1.09l-1.253-9.922C260.967,379.654,255.529,380,250.01,380z" fill="inherit"/><path d="M250.01,120c5.52,0,10.957,0.346,16.295,1.012l1.253-9.922c-5.748-0.717-11.604-1.09-17.548-1.09V120z" fill="inherit"/><path d="M326.438,144.805l5.879-8.092c-4.732-3.442-9.686-6.596-14.841-9.434l-4.819,8.766 C317.444,138.68,322.044,141.609,326.438,144.805z" fill="inherit"/><path d="M312.657,363.955l4.819,8.766c5.155-2.837,10.109-5.992,14.841-9.434l-5.879-8.092 C322.044,358.391,317.444,361.32,312.657,363.955z" fill="inherit"/><path d="M339.017,344.783l6.847,7.291c4.275-4.015,8.301-8.292,12.044-12.813l-7.707-6.376 C346.725,337.083,342.986,341.054,339.017,344.783z" fill="inherit"/><path d="M282.349,375.952l2.488,9.689c5.727-1.463,11.311-3.28,16.73-5.424l-3.683-9.301 C292.852,372.907,287.666,374.593,282.349,375.952z" fill="inherit"/><path d="M380.01,250c0,2.743-0.095,5.462-0.262,8.162l9.98,0.628c0.18-2.908,0.282-5.837,0.282-8.79 s-0.102-5.882-0.282-8.79l-9.98,0.628C379.915,244.538,380.01,247.257,380.01,250z" fill="inherit"/><path d="M359.804,319.678l8.446,5.36c3.136-4.934,5.967-10.08,8.476-15.409l-9.051-4.259 C365.345,310.317,362.716,315.096,359.804,319.678z" fill="inherit"/><path d="M373.682,290.184l9.513,3.091c1.795-5.536,3.254-11.222,4.354-17.038l-9.824-1.874 C376.704,279.763,375.349,285.043,373.682,290.184z" fill="inherit"/><path d="M157.526,326.509l-7.707,6.376c3.476,4.198,7.214,8.169,11.184,11.898l6.847-7.291 C164.185,334.05,160.734,330.384,157.526,326.509z" fill="inherit"/><path d="M132.118,272.489l-9.824,1.874c1.022,5.4,2.377,10.68,4.043,15.821l9.513-3.091 C134.312,282.348,133.061,277.474,132.118,272.489z" fill="inherit"/><path d="M141.396,301.11l-9.051,4.259c2.33,4.948,4.959,9.727,7.871,14.309l8.446-5.36 C145.973,310.088,143.546,305.677,141.396,301.11z" fill="inherit"/><path d="M234.968,369.066l-1.253,9.922c5.338,0.666,10.775,1.012,16.295,1.012v-10 C244.915,370,239.895,369.68,234.968,369.066z" fill="inherit"/><path d="M179.46,347.103l-5.879,8.092c4.394,3.196,8.994,6.125,13.781,8.76l4.819-8.766 C187.763,352.757,183.516,350.054,179.46,347.103z" fill="inherit"/><path d="M205.818,361.615l-3.683,9.301c5.031,1.991,10.217,3.677,15.535,5.036l2.488-9.689 C215.25,365.009,210.463,363.453,205.818,361.615z" fill="inherit"/><path d="M192.181,144.811l-4.819-8.766c-4.787,2.635-9.387,5.564-13.781,8.76l5.879,8.092 C183.516,149.946,187.763,147.243,192.181,144.811z" fill="inherit"/><path d="M220.158,133.736l-2.488-9.689c-5.318,1.359-10.503,3.045-15.535,5.036l3.683,9.301 C210.463,136.548,215.25,134.991,220.158,133.736z" fill="inherit"/><path d="M130.01,250c0-2.532,0.088-5.042,0.242-7.535l-9.98-0.628c-0.167,2.7-0.262,5.42-0.262,8.162 s0.095,5.462,0.262,8.162l9.98-0.628C130.097,255.042,130.01,252.532,130.01,250z" fill="inherit"/><path d="M135.85,212.907l-9.513-3.091c-1.666,5.14-3.021,10.421-4.043,15.821l9.824,1.874 C133.061,222.526,134.312,217.652,135.85,212.907z" fill="inherit"/><path d="M148.661,185.682l-8.446-5.36c-2.912,4.582-5.541,9.36-7.871,14.309l9.051,4.259 C143.546,194.323,145.973,189.912,148.661,185.682z" fill="inherit"/><path d="M167.849,162.508l-6.847-7.291c-3.969,3.729-7.708,7.7-11.184,11.898l7.707,6.376 C160.734,169.616,164.185,165.95,167.849,162.508z" fill="inherit"/><path d="M342.493,326.509l7.707,6.376c3.468-4.189,6.676-8.6,9.604-13.207l-8.446-5.36 C348.656,318.571,345.695,322.643,342.493,326.509z" fill="inherit"/><path d="M265.051,369.066l1.253,9.922c5.461-0.681,10.816-1.7,16.044-3.036l-2.488-9.689 C275.035,367.497,270.092,368.437,265.051,369.066z" fill="inherit"/><path d="M332.17,162.508l6.847-7.291c-3.967-3.726-8.168-7.204-12.578-10.412l-5.879,8.092 C324.631,155.858,328.509,159.069,332.17,162.508z" fill="inherit"/><path d="M364.169,212.907l9.513-3.091c-1.691-5.214-3.7-10.284-6.008-15.185l-9.051,4.259 C360.754,203.415,362.609,208.094,364.169,212.907z" fill="inherit"/><path d="M307.838,144.811l4.819-8.766c-4.752-2.615-9.682-4.946-14.773-6.961l-3.683,9.301 C298.901,140.245,303.452,142.396,307.838,144.811z" fill="inherit"/><path d="M234.968,130.934c4.927-0.615,9.946-0.934,15.041-0.934v-10c-5.52,0-10.957,0.346-16.295,1.012 L234.968,130.934z" fill="inherit"/><path d="M279.861,133.736l2.488-9.689c-5.228-1.336-10.583-2.354-16.044-3.036l-1.253,9.922 C270.092,131.563,275.035,132.503,279.861,133.736z" fill="inherit"/><path d="M351.358,185.682l8.446-5.36c-2.928-4.607-6.136-9.019-9.604-13.207l-7.707,6.376 C345.695,177.357,348.656,181.429,351.358,185.682z" fill="inherit"/><path d="M320.559,347.103l5.879,8.092c4.411-3.209,8.612-6.686,12.578-10.412l-6.847-7.291 C328.509,340.931,324.631,344.141,320.559,347.103z" fill="inherit"/><path d="M294.201,361.615l3.683,9.301c5.091-2.015,10.022-4.345,14.773-6.961l-4.819-8.766 C303.452,357.603,298.901,359.755,294.201,361.615z" fill="inherit"/><path d="M369.768,242.465l9.98-0.628c-0.34-5.501-1.021-10.907-2.022-16.201l-9.824,1.874 C368.826,232.397,369.454,237.388,369.768,242.465z" fill="inherit"/><path d="M367.901,272.489l9.824,1.874c1.002-5.293,1.682-10.7,2.022-16.201l-9.98-0.628 C369.454,262.612,368.826,267.603,367.901,272.489z" fill="inherit"/><path d="M358.624,301.11l9.051,4.259c2.308-4.901,4.317-9.971,6.008-15.185l-9.513-3.091 C362.609,291.906,360.754,296.585,358.624,301.11z" fill="inherit"/><path d="M157.107,308.958l-8.446,5.36c2.703,4.253,5.664,8.325,8.865,12.191l7.707-6.376 C162.299,316.589,159.584,312.857,157.107,308.958z" fill="inherit"/><path d="M174.696,330.201l-6.847,7.291c3.661,3.439,7.539,6.65,11.611,9.611l5.879-8.092 C181.607,336.296,178.052,333.354,174.696,330.201z" fill="inherit"/><path d="M145.364,284.002l-9.513,3.091c1.56,4.813,3.415,9.493,5.546,14.017l9.051-4.259 C148.494,292.703,146.794,288.414,145.364,284.002z" fill="inherit"/><path d="M250.01,360v10c5.095,0,10.114-0.32,15.041-0.934l-1.253-9.922C259.281,359.707,254.68,360,250.01,360z" fill="inherit"/><path d="M197,346.424l-4.819,8.766c4.386,2.414,8.937,4.565,13.637,6.425l3.683-9.301 C205.193,350.609,201.021,348.637,197,346.424z" fill="inherit"/><path d="M222.646,356.575l-2.488,9.689c4.826,1.233,9.769,2.173,14.81,2.802l1.253-9.922 C231.601,358.567,227.069,357.705,222.646,356.575z" fill="inherit"/><path d="M185.339,160.989l-5.879-8.092c-4.072,2.962-7.949,6.172-11.611,9.611l6.847,7.291 C178.052,166.646,181.607,163.704,185.339,160.989z" fill="inherit"/><path d="M165.233,179.867l-7.707-6.376c-3.201,3.866-6.162,7.938-8.865,12.191l8.446,5.36 C159.584,187.143,162.299,183.411,165.233,179.867z" fill="inherit"/><path d="M209.501,147.687l-3.683-9.301c-4.7,1.86-9.251,4.011-13.637,6.425l4.819,8.766 C201.021,151.364,205.193,149.391,209.501,147.687z" fill="inherit"/><path d="M141.942,229.385l-9.824-1.874c-0.925,4.886-1.553,9.877-1.867,14.954l9.98,0.628 C140.519,238.439,141.095,233.864,141.942,229.385z" fill="inherit"/><path d="M140.231,256.907l-9.98,0.628c0.314,5.077,0.942,10.068,1.867,14.954l9.824-1.874 C141.095,266.136,140.519,261.561,140.231,256.907z" fill="inherit"/><path d="M150.447,203.149l-9.051-4.259c-2.13,4.524-3.985,9.204-5.546,14.017l9.513,3.091 C146.794,211.586,148.494,207.297,150.447,203.149z" fill="inherit"/><path d="M325.323,330.201l6.847,7.291c3.664-3.442,7.115-7.108,10.323-10.983l-7.707-6.376 C331.845,323.686,328.682,327.046,325.323,330.201z" fill="inherit"/><path d="M334.786,179.867l7.707-6.376c-3.208-3.875-6.659-7.541-10.323-10.983l-6.847,7.291 C328.682,172.954,331.845,176.314,334.786,179.867z" fill="inherit"/><path d="M314.68,160.989l5.879-8.092c-4.056-2.95-8.303-5.654-12.721-8.086l-4.819,8.766 C307.069,155.806,310.962,158.284,314.68,160.989z" fill="inherit"/><path d="M349.572,203.149l9.051-4.259c-2.151-4.568-4.578-8.979-7.265-13.208l-8.446,5.36 C345.376,194.919,347.601,198.962,349.572,203.149z" fill="inherit"/><path d="M222.646,143.425c4.424-1.13,8.955-1.992,13.576-2.569l-1.253-9.922c-5.041,0.629-9.984,1.569-14.81,2.802 L222.646,143.425z" fill="inherit"/><path d="M277.373,356.575l2.488,9.689c4.909-1.254,9.695-2.811,14.34-4.649l-3.683-9.301 C286.261,353.998,281.873,355.425,277.373,356.575z" fill="inherit"/><path d="M263.798,140.856l1.253-9.922c-4.927-0.615-9.946-0.934-15.041-0.934v10 C254.68,140,259.281,140.293,263.798,140.856z" fill="inherit"/><path d="M290.518,147.687l3.683-9.301c-4.645-1.838-9.431-3.395-14.34-4.649l-2.488,9.689 C281.873,144.575,286.261,146.002,290.518,147.687z" fill="inherit"/><path d="M303.019,346.424l4.819,8.766c4.419-2.432,8.665-5.136,12.721-8.086l-5.879-8.092 C310.962,341.716,307.069,344.194,303.019,346.424z" fill="inherit"/><path d="M358.077,229.385l9.824-1.874c-0.943-4.984-2.194-9.859-3.732-14.604l-9.513,3.091 C356.066,220.348,357.212,224.816,358.077,229.385z" fill="inherit"/><path d="M342.913,308.958l8.446,5.36c2.688-4.229,5.115-8.64,7.265-13.208l-9.051-4.259 C347.601,301.038,345.376,305.081,342.913,308.958z" fill="inherit"/><path d="M360.01,250c0,2.321-0.08,4.622-0.222,6.907l9.98,0.628c0.154-2.492,0.242-5.003,0.242-7.535 s-0.088-5.042-0.242-7.535l-9.98,0.628C359.929,245.378,360.01,247.679,360.01,250z" fill="inherit"/><path d="M354.656,284.002l9.513,3.091c1.538-4.745,2.789-9.619,3.732-14.604l-9.824-1.874 C357.212,275.184,356.066,279.652,354.656,284.002z" fill="inherit"/><path d="M191.218,330.919l-5.879,8.092c3.718,2.705,7.611,5.183,11.661,7.412l4.819-8.766 C198.137,335.631,194.598,333.378,191.218,330.919z" fill="inherit"/><path d="M172.94,313.758l-7.707,6.376c2.941,3.552,6.104,6.913,9.463,10.068l6.847-7.291 C178.489,320.042,175.614,316.987,172.94,313.758z" fill="inherit"/><path d="M159.498,292.592l-9.051,4.259c1.971,4.187,4.196,8.23,6.66,12.107l8.446-5.36 C163.313,300.074,161.29,296.398,159.498,292.592z" fill="inherit"/><path d="M262.544,349.221l1.253,9.922c4.621-0.577,9.152-1.438,13.576-2.569l-2.488-9.689 C270.864,347.914,266.745,348.697,262.544,349.221z" fill="inherit"/><path d="M237.475,349.221l-1.253,9.922c4.516,0.564,9.118,0.856,13.788,0.856v-10 C245.764,350,241.581,349.734,237.475,349.221z" fill="inherit"/><path d="M213.184,343.012l-3.683,9.301c4.257,1.685,8.645,3.112,13.145,4.262l2.488-9.689 C221.043,345.841,217.054,344.544,213.184,343.012z" fill="inherit"/><path d="M181.543,177.09l-6.847-7.291c-3.359,3.155-6.522,6.515-9.463,10.068l7.707,6.376 C175.614,183.013,178.489,179.958,181.543,177.09z" fill="inherit"/><path d="M151.767,268.741l-9.824,1.874c0.865,4.569,2.011,9.037,3.421,13.387l9.513-3.091 C153.595,276.956,152.553,272.895,151.767,268.741z" fill="inherit"/><path d="M201.819,162.342L197,153.576c-4.05,2.229-7.943,4.708-11.661,7.412l5.879,8.092 C194.598,166.622,198.137,164.369,201.819,162.342z" fill="inherit"/><path d="M165.553,196.402l-8.446-5.36c-2.464,3.877-4.688,7.92-6.66,12.107l9.051,4.259 C161.29,203.602,163.313,199.926,165.553,196.402z" fill="inherit"/><path d="M150.01,250c0-2.11,0.073-4.202,0.201-6.279l-9.98-0.628c-0.141,2.285-0.222,4.586-0.222,6.907 s0.08,4.622,0.222,6.907l9.98-0.628C150.083,254.202,150.01,252.11,150.01,250z" fill="inherit"/><path d="M154.877,219.089l-9.513-3.091c-1.41,4.35-2.556,8.818-3.421,13.387l9.824,1.874 C152.553,227.105,153.595,223.044,154.877,219.089z" fill="inherit"/><path d="M348.253,268.741l9.824,1.874c0.848-4.479,1.423-9.054,1.711-13.708l-9.98-0.628 C349.547,260.51,349.023,264.669,348.253,268.741z" fill="inherit"/><path d="M298.2,162.342l4.819-8.766c-4.021-2.213-8.193-4.185-12.501-5.89l-3.683,9.301 C290.752,158.538,294.545,160.33,298.2,162.342z" fill="inherit"/><path d="M334.467,196.402l8.446-5.36c-2.477-3.899-5.192-7.631-8.126-11.175l-7.707,6.376 C329.747,189.464,332.215,192.858,334.467,196.402z" fill="inherit"/><path d="M318.477,177.09l6.847-7.291c-3.356-3.153-6.911-6.095-10.643-8.81l-5.879,8.092 C312.194,171.549,315.425,174.224,318.477,177.09z" fill="inherit"/><path d="M274.886,153.114l2.488-9.689c-4.424-1.13-8.955-1.992-13.576-2.569l-1.253,9.922 C266.745,151.303,270.864,152.086,274.886,153.114z" fill="inherit"/><path d="M213.184,156.988c3.87-1.532,7.859-2.829,11.95-3.874l-2.488-9.689c-4.5,1.15-8.887,2.577-13.145,4.262 L213.184,156.988z" fill="inherit"/><path d="M286.836,343.012l3.683,9.301c4.308-1.705,8.48-3.677,12.501-5.89l-4.819-8.766 C294.545,339.67,290.752,341.462,286.836,343.012z" fill="inherit"/><path d="M250.01,150v-10c-4.67,0-9.272,0.293-13.788,0.856l1.253,9.922C241.581,150.266,245.764,150,250.01,150z" fill="inherit"/><path d="M340.521,292.592l9.051,4.259c1.953-4.147,3.653-8.437,5.083-12.849l-9.513-3.091 C343.842,284.922,342.297,288.821,340.521,292.592z" fill="inherit"/><path d="M327.079,313.758l7.707,6.376c2.934-3.544,5.649-7.277,8.126-11.175l-8.446-5.36 C332.215,307.142,329.747,310.536,327.079,313.758z" fill="inherit"/><path d="M308.801,330.919l5.879,8.092c3.732-2.715,7.287-5.658,10.643-8.81l-6.847-7.291 C315.425,325.776,312.194,328.451,308.801,330.919z" fill="inherit"/><path d="M349.808,243.721l9.98-0.628c-0.288-4.654-0.864-9.229-1.711-13.708l-9.824,1.874 C349.023,235.331,349.547,239.49,349.808,243.721z" fill="inherit"/><path d="M345.143,219.089l9.513-3.091c-1.43-4.412-3.131-8.702-5.083-12.849l-9.051,4.259 C342.296,211.179,343.842,215.078,345.143,219.089z" fill="inherit"/><path d="M206.641,328.887l-4.822,8.771c3.655,2.012,7.448,3.804,11.364,5.354l3.692-9.325 C213.351,332.293,209.93,330.697,206.641,328.887z" fill="inherit"/><path d="M174.017,298.227l-8.464,5.372c2.252,3.544,4.72,6.938,7.387,10.16l7.708-6.377 C178.248,304.481,176.044,301.416,174.017,298.227z" fill="inherit"/><path d="M188.402,315.606l-6.859,7.304c3.051,2.866,6.283,5.541,9.676,8.009l5.887-8.103 C194.052,320.595,191.148,318.185,188.402,315.606z" fill="inherit"/><path d="M227.621,337.196l-2.488,9.69c4.021,1.028,8.141,1.811,12.342,2.335l1.257-9.948 C234.953,338.802,231.239,338.121,227.621,337.196z" fill="inherit"/><path d="M272.398,337.196l2.488,9.69c4.091-1.045,8.08-2.343,11.95-3.874l-3.692-9.325 C279.66,335.066,276.08,336.255,272.398,337.196z" fill="inherit"/><path d="M250.01,340v10c4.246,0,8.429-0.266,12.535-0.779l-1.257-9.948C257.591,339.735,253.833,340,250.01,340z" fill="inherit"/><path d="M180.648,192.619l-7.708-6.377c-2.668,3.222-5.135,6.615-7.387,10.159l8.464,5.372 C176.044,198.584,178.248,195.519,180.648,192.619z" fill="inherit"/><path d="M197.106,177.184l-5.887-8.103c-3.393,2.468-6.624,5.143-9.676,8.009l6.859,7.304 C191.148,181.815,194.052,179.405,197.106,177.184z" fill="inherit"/><path d="M168.558,211.672l-9.06-4.263c-1.775,3.77-3.321,7.67-4.621,11.681l9.526,3.095 C165.573,218.575,166.96,215.065,168.558,211.672z" fill="inherit"/><path d="M164.403,277.815l-9.526,3.095c1.3,4.011,2.846,7.911,4.621,11.681l9.06-4.263 C166.96,284.935,165.573,281.425,164.403,277.815z" fill="inherit"/><path d="M161.607,233.136l-9.84-1.877c-0.771,4.072-1.294,8.231-1.556,12.462l9.993,0.629 C160.439,240.542,160.914,236.801,161.607,233.136z" fill="inherit"/><path d="M160.204,255.65l-9.993,0.629c0.262,4.231,0.785,8.39,1.556,12.462l9.84-1.877 C160.914,263.199,160.439,259.458,160.204,255.65z" fill="inherit"/><path d="M283.144,166.313l3.692-9.325c-3.87-1.532-7.859-2.829-11.95-3.874l-2.488,9.69 C276.08,163.745,279.66,164.934,283.144,166.313z" fill="inherit"/><path d="M319.371,192.619l7.708-6.377c-2.674-3.229-5.549-6.284-8.603-9.152l-6.859,7.304 C314.366,186.975,316.965,189.713,319.371,192.619z" fill="inherit"/><path d="M302.914,177.184l5.887-8.103c-3.38-2.459-6.919-4.712-10.601-6.739l-4.822,8.771 C296.692,172.938,299.872,174.971,302.914,177.184z" fill="inherit"/><path d="M261.288,160.727l1.257-9.948c-4.106-0.512-8.289-0.779-12.535-0.779v10 C253.833,160,257.591,160.265,261.288,160.727z" fill="inherit"/><path d="M206.641,171.113c3.289-1.81,6.71-3.406,10.234-4.801l-3.692-9.325c-3.916,1.55-7.709,3.343-11.364,5.354 L206.641,171.113z" fill="inherit"/><path d="M238.732,160.727l-1.257-9.948c-4.201,0.524-8.32,1.307-12.342,2.335l2.488,9.69 C231.239,161.879,234.953,161.199,238.732,160.727z" fill="inherit"/><path d="M340.01,250c0,1.9-0.078,3.78-0.194,5.65l9.993,0.629c0.128-2.077,0.201-4.169,0.201-6.279 s-0.073-4.202-0.201-6.279l-9.993,0.629C339.931,246.22,340.01,248.1,340.01,250z" fill="inherit"/><path d="M335.616,277.815l9.526,3.095c1.282-3.954,2.324-8.016,3.11-12.17l-9.84-1.877 C337.705,270.602,336.77,274.257,335.616,277.815z" fill="inherit"/><path d="M326.003,298.227l8.464,5.372c2.24-3.525,4.262-7.2,6.054-11.007l-9.06-4.263 C329.848,291.754,328.018,295.054,326.003,298.227z" fill="inherit"/><path d="M311.618,315.606l6.859,7.304c3.053-2.868,5.929-5.923,8.603-9.152l-7.708-6.377 C316.965,310.287,314.366,313.025,311.618,315.606z" fill="inherit"/><path d="M331.461,211.672l9.06-4.263c-1.792-3.806-3.815-7.482-6.054-11.007l-8.464,5.372 C328.018,204.946,329.848,208.246,331.461,211.672z" fill="inherit"/><path d="M338.412,233.136l9.84-1.877c-0.786-4.154-1.828-8.216-3.11-12.17l-9.526,3.095 C336.77,225.743,337.705,229.398,338.412,233.136z" fill="inherit"/><path d="M293.378,328.887l4.822,8.771c3.682-2.027,7.221-4.28,10.601-6.738l-5.887-8.103 C299.872,325.029,296.692,327.062,293.378,328.887z" fill="inherit"/><path d="M220.557,324.389l-3.682,9.299c3.484,1.379,7.064,2.568,10.746,3.509l2.488-9.688 C226.836,326.671,223.654,325.614,220.557,324.389z" fill="inherit"/><path d="M188.355,301.005l-7.707,6.376c2.406,2.906,5.005,5.644,7.753,8.225l6.845-7.29 C192.804,306.022,190.494,303.588,188.355,301.005z" fill="inherit"/><path d="M202.984,314.725l-5.878,8.091c3.042,2.213,6.222,4.247,9.536,6.071l4.819-8.765 C208.515,318.5,205.688,316.692,202.984,314.725z" fill="inherit"/><path d="M279.462,324.389l3.682,9.299c3.524-1.395,6.945-2.991,10.234-4.801l-4.819-8.765 C285.636,321.73,282.595,323.149,279.462,324.389z" fill="inherit"/><path d="M239.985,329.354l-1.253,9.919c3.697,0.461,7.455,0.727,11.278,0.727v-10 C246.612,330,243.271,329.764,239.985,329.354z" fill="inherit"/><path d="M260.034,329.354l1.253,9.919c3.779-0.472,7.493-1.153,11.11-2.077l-2.488-9.688 C266.694,328.329,263.394,328.935,260.034,329.354z" fill="inherit"/><path d="M182.46,207.132l-8.444-5.359c-2.016,3.172-3.846,6.472-5.459,9.898l9.05,4.259 C179.042,212.885,180.669,209.952,182.46,207.132z" fill="inherit"/><path d="M173.915,225.275l-9.512-3.091c-1.154,3.558-2.088,7.214-2.796,10.952l9.822,1.874 C172.058,231.687,172.889,228.438,173.915,225.275z" fill="inherit"/><path d="M195.247,191.684l-6.845-7.29c-2.748,2.581-5.347,5.319-7.753,8.225l7.707,6.376 C190.494,196.412,192.804,193.978,195.247,191.684z" fill="inherit"/><path d="M177.608,284.07l-9.05,4.259c1.613,3.426,3.443,6.726,5.459,9.898l8.444-5.358 C180.669,290.048,179.042,287.115,177.608,284.07z" fill="inherit"/><path d="M171.43,264.99l-9.822,1.874c0.707,3.738,1.642,7.393,2.796,10.952l9.512-3.091 C172.889,271.562,172.058,268.313,171.43,264.99z" fill="inherit"/><path d="M170.01,250c0-1.689,0.07-3.36,0.172-5.022l-9.978-0.628c-0.116,1.87-0.194,3.751-0.194,5.65 s0.078,3.78,0.194,5.65l9.978-0.628C170.079,253.36,170.01,251.689,170.01,250z" fill="inherit"/><path d="M288.559,179.879l4.819-8.765c-3.289-1.81-6.71-3.406-10.234-4.801l-3.682,9.299 C282.595,176.851,285.636,178.27,288.559,179.879z" fill="inherit"/><path d="M304.772,191.684l6.845-7.29c-2.746-2.579-5.651-4.989-8.704-7.21l-5.878,8.091 C299.75,187.249,302.332,189.391,304.772,191.684z" fill="inherit"/><path d="M269.91,172.492l2.488-9.688c-3.618-0.925-7.331-1.605-11.11-2.077l-1.253,9.919 C263.394,171.065,266.694,171.67,269.91,172.492z" fill="inherit"/><path d="M202.984,185.275c2.704-1.967,5.53-3.775,8.476-5.396l-4.819-8.765c-3.314,1.824-6.494,3.858-9.536,6.071 L202.984,185.275z" fill="inherit"/><path d="M250.01,170v-10c-3.823,0-7.581,0.265-11.278,0.727l1.253,9.919C243.271,170.236,246.612,170,250.01,170z" fill="inherit"/><path d="M230.109,172.492l-2.488-9.688c-3.682,0.941-7.262,2.13-10.746,3.509l3.682,9.299 C223.654,174.386,226.836,173.329,230.109,172.492z" fill="inherit"/><path d="M311.664,301.005l7.707,6.376c2.401-2.9,4.605-5.965,6.631-9.154l-8.444-5.358 C315.757,295.703,313.798,298.428,311.664,301.005z" fill="inherit"/><path d="M322.411,284.07l9.05,4.259c1.598-3.393,2.985-6.903,4.155-10.513l-9.512-3.091 C325.064,277.933,323.831,281.054,322.411,284.07z" fill="inherit"/><path d="M317.559,207.132l8.444-5.359c-2.027-3.189-4.231-6.255-6.631-9.154l-7.707,6.376 C313.798,201.572,315.757,204.297,317.559,207.132z" fill="inherit"/><path d="M297.035,314.725l5.878,8.091c3.054-2.221,5.958-4.631,8.704-7.21l-6.845-7.29 C302.332,310.609,299.75,312.751,297.035,314.725z" fill="inherit"/><path d="M326.105,225.275l9.512-3.091c-1.17-3.61-2.557-7.12-4.155-10.513l-9.05,4.259 C323.831,218.946,325.064,222.067,326.105,225.275z" fill="inherit"/><path d="M328.59,264.99l9.822,1.874c0.694-3.665,1.168-7.406,1.403-11.214l-9.978-0.628 C329.628,258.407,329.206,261.733,328.59,264.99z" fill="inherit"/><path d="M329.837,244.978l9.978-0.628c-0.236-3.808-0.71-7.549-1.403-11.214l-9.822,1.874 C329.206,238.267,329.628,241.593,329.837,244.978z" fill="inherit"/><path d="M232.597,317.819l-2.488,9.688c3.216,0.822,6.517,1.427,9.876,1.846l1.253-9.919 C238.299,319.068,235.411,318.538,232.597,317.819z" fill="inherit"/><path d="M216.279,311.356l-4.819,8.765c2.924,1.609,5.964,3.028,9.097,4.267l3.682-9.299 C221.498,314.005,218.837,312.764,216.279,311.356z" fill="inherit"/><path d="M202.092,301.027l-6.845,7.29c2.441,2.293,5.023,4.434,7.737,6.409l5.878-8.091 C206.487,304.907,204.228,303.033,202.092,301.027z" fill="inherit"/><path d="M283.741,311.356l4.819,8.765c2.946-1.621,5.772-3.429,8.476-5.396l-5.878-8.091 C288.791,308.356,286.318,309.938,283.741,311.356z" fill="inherit"/><path d="M267.423,317.819l2.488,9.688c3.273-0.836,6.455-1.893,9.552-3.119l-3.682-9.299 C273.071,316.163,270.287,317.087,267.423,317.819z" fill="inherit"/><path d="M250.01,320v10c3.398,0,6.739-0.236,10.025-0.646l-1.253-9.919C255.906,319.794,252.983,320,250.01,320z" fill="inherit"/><path d="M196.062,205.371l-7.707-6.376c-2.134,2.577-4.093,5.302-5.895,8.137l8.444,5.359 C192.481,210.01,194.195,207.626,196.062,205.371z" fill="inherit"/><path d="M190.904,287.51l-8.444,5.358c1.802,2.835,3.761,5.56,5.895,8.137l7.707-6.376 C194.195,292.374,192.481,289.99,190.904,287.51z" fill="inherit"/><path d="M181.252,236.884l-9.823-1.874c-0.616,3.257-1.038,6.583-1.248,9.968l9.979,0.628 C180.344,242.644,180.713,239.734,181.252,236.884z" fill="inherit"/><path d="M183.427,271.634l-9.512,3.091c1.04,3.209,2.273,6.329,3.693,9.345l9.05-4.259 C185.416,277.172,184.337,274.442,183.427,271.634z" fill="inherit"/><path d="M180.161,254.395l-9.979,0.628c0.209,3.385,0.631,6.71,1.248,9.968l9.823-1.874 C180.713,260.266,180.344,257.356,180.161,254.395z" fill="inherit"/><path d="M186.658,220.189l-9.05-4.259c-1.42,3.016-2.653,6.136-3.693,9.345l9.512,3.091 C184.337,225.558,185.416,222.828,186.658,220.189z" fill="inherit"/><path d="M275.781,184.91l3.682-9.299c-3.097-1.226-6.279-2.282-9.552-3.119l-2.488,9.688 C270.287,182.913,273.071,183.837,275.781,184.91z" fill="inherit"/><path d="M258.781,180.565l1.253-9.919c-3.286-0.41-6.627-0.646-10.025-0.646v10 C252.983,180,255.906,180.206,258.781,180.565z" fill="inherit"/><path d="M291.157,193.365l5.878-8.091c-2.704-1.967-5.53-3.775-8.476-5.396l-4.819,8.765 C286.318,190.062,288.791,191.644,291.157,193.365z" fill="inherit"/><path d="M241.238,180.565l-1.253-9.919c-3.359,0.419-6.66,1.025-9.876,1.846l2.488,9.688 C235.411,181.462,238.299,180.932,241.238,180.565z" fill="inherit"/><path d="M224.239,184.91l-3.682-9.299c-3.133,1.24-6.173,2.658-9.097,4.267l4.819,8.765 C218.837,187.236,221.498,185.995,224.239,184.91z" fill="inherit"/><path d="M202.092,198.973c2.136-2.006,4.395-3.88,6.77-5.608l-5.878-8.091c-2.714,1.974-5.296,4.116-7.737,6.409 L202.092,198.973z" fill="inherit"/><path d="M316.593,271.634l9.512,3.091c1.026-3.163,1.856-6.412,2.485-9.735l-9.823-1.874 C318.217,266.024,317.49,268.867,316.593,271.634z" fill="inherit"/><path d="M320.01,250c0,1.477-0.061,2.94-0.151,4.395l9.979,0.628c0.103-1.662,0.172-3.334,0.172-5.022 s-0.07-3.36-0.172-5.022l-9.979,0.628C319.949,247.06,320.01,248.523,320.01,250z" fill="inherit"/><path d="M309.115,287.51l8.444,5.358c1.792-2.82,3.419-5.753,4.852-8.798l-9.05-4.259 C312.106,282.475,310.683,285.042,309.115,287.51z" fill="inherit"/><path d="M313.361,220.189l9.05-4.259c-1.434-3.045-3.06-5.979-4.852-8.798l-8.444,5.359 C310.683,214.958,312.106,217.525,313.361,220.189z" fill="inherit"/><path d="M303.957,205.371l7.707-6.376c-2.139-2.583-4.449-5.017-6.892-7.311l-6.845,7.29 C300.065,200.981,302.086,203.11,303.957,205.371z" fill="inherit"/><path d="M318.767,236.884l9.823-1.874c-0.629-3.323-1.46-6.572-2.485-9.735l-9.512,3.091 C317.49,231.134,318.217,233.976,318.767,236.884z" fill="inherit"/><path d="M297.927,301.027l6.845,7.29c2.443-2.294,4.753-4.728,6.892-7.311l-7.707-6.376 C302.086,296.89,300.064,299.019,297.927,301.027z" fill="inherit"/><path d="M242.491,309.516l-1.253,9.919c2.875,0.359,5.798,0.565,8.772,0.565v-10 C247.461,310,244.956,309.823,242.491,309.516z" fill="inherit"/><path d="M227.92,305.792l-3.682,9.299c2.71,1.072,5.494,1.997,8.358,2.729l2.488-9.689 C232.629,307.504,230.243,306.711,227.92,305.792z" fill="inherit"/><path d="M214.74,298.544l-5.878,8.091c2.366,1.721,4.839,3.303,7.417,4.722l4.819-8.765 C218.888,301.375,216.768,300.019,214.74,298.544z" fill="inherit"/><path d="M285.279,298.544l5.878,8.091c2.375-1.728,4.634-3.601,6.77-5.608l-6.845-7.29 C289.251,295.457,287.315,297.063,285.279,298.544z" fill="inherit"/><path d="M257.528,309.516l1.253,9.919c2.939-0.367,5.828-0.896,8.641-1.615l-2.488-9.689 C262.523,308.747,260.048,309.201,257.528,309.516z" fill="inherit"/><path d="M272.099,305.792l3.682,9.299c2.741-1.085,5.402-2.326,7.96-3.734l-4.819-8.765 C276.729,303.798,274.449,304.862,272.099,305.792z" fill="inherit"/><path d="M190.01,250c0-1.266,0.052-2.52,0.129-3.767l-9.978-0.628c-0.09,1.455-0.151,2.917-0.151,4.395 s0.061,2.94,0.151,4.395l9.978-0.628C190.062,252.52,190.01,251.266,190.01,250z" fill="inherit"/><path d="M192.939,231.456l-9.512-3.091c-0.897,2.768-1.624,5.611-2.175,8.518l9.822,1.874 C191.546,236.266,192.169,233.829,192.939,231.456z" fill="inherit"/><path d="M199.348,217.849l-8.444-5.358c-1.568,2.467-2.991,5.034-4.246,7.699l9.05,4.259 C196.784,222.164,198.004,219.964,199.348,217.849z" fill="inherit"/><path d="M191.075,261.242l-9.822,1.874c0.55,2.907,1.277,5.75,2.175,8.518l9.512-3.091 C192.169,266.171,191.546,263.734,191.075,261.242z" fill="inherit"/><path d="M195.708,275.552l-9.05,4.259c1.255,2.665,2.678,5.231,4.246,7.699l8.444-5.359 C198.004,280.036,196.784,277.836,195.708,275.552z" fill="inherit"/><path d="M203.769,288.254l-7.707,6.376c1.872,2.26,3.893,4.39,6.03,6.397l6.845-7.29 C207.106,292.016,205.373,290.191,203.769,288.254z" fill="inherit"/><path d="M264.935,191.869l2.488-9.688c-2.814-0.719-5.702-1.249-8.641-1.615l-1.253,9.919 C260.048,190.799,262.523,191.253,264.935,191.869z" fill="inherit"/><path d="M250.01,190v-10c-2.973,0-5.896,0.206-8.772,0.565l1.253,9.919C244.956,190.177,247.461,190,250.01,190z" fill="inherit"/><path d="M278.922,197.409l4.819-8.765c-2.558-1.408-5.219-2.649-7.96-3.734l-3.682,9.299 C274.449,195.138,276.729,196.202,278.922,197.409z" fill="inherit"/><path d="M235.084,191.869l-2.488-9.688c-2.864,0.732-5.648,1.657-8.358,2.729l3.682,9.299 C230.243,193.289,232.629,192.496,235.084,191.869z" fill="inherit"/><path d="M196.062,205.371l7.707,6.376c1.604-1.938,3.337-3.763,5.169-5.484l-6.845-7.29 C199.955,200.981,197.934,203.11,196.062,205.371z" fill="inherit"/><path d="M296.251,288.254l7.707,6.376c1.867-2.255,3.581-4.639,5.158-7.12l-8.444-5.359 C299.32,284.277,297.851,286.321,296.251,288.254z" fill="inherit"/><path d="M221.098,197.409l-4.819-8.765c-2.577,1.419-5.051,3.001-7.417,4.722l5.878,8.091 C216.768,199.981,218.888,198.625,221.098,197.409z" fill="inherit"/><path d="M308.945,261.242l9.822,1.874c0.539-2.85,0.908-5.76,1.092-8.722l-9.978-0.628 C309.723,256.305,309.407,258.799,308.945,261.242z" fill="inherit"/><path d="M309.88,246.233l9.978-0.628c-0.183-2.962-0.552-5.872-1.092-8.722l-9.822,1.874 C309.407,241.201,309.723,243.695,309.88,246.233z" fill="inherit"/><path d="M304.311,275.552l9.05,4.259c1.243-2.639,2.321-5.369,3.232-8.177l-9.512-3.091 C306.301,270.95,305.376,273.29,304.311,275.552z" fill="inherit"/><path d="M300.672,217.849l8.444-5.358c-1.576-2.481-3.291-4.865-5.158-7.12l-7.707,6.376 C297.851,213.679,299.32,215.723,300.672,217.849z" fill="inherit"/><path d="M291.082,206.263l6.845-7.29c-2.136-2.006-4.395-3.88-6.77-5.608l-5.878,8.091 C287.315,202.937,289.251,204.543,291.082,206.263z" fill="inherit"/><path d="M307.081,231.456l9.512-3.091c-0.91-2.808-1.989-5.538-3.232-8.177l-9.05,4.259 C305.376,226.71,306.301,229.05,307.081,231.456z" fill="inherit"/><path d="M237.572,298.442l-2.488,9.689c2.412,0.616,4.888,1.07,7.407,1.385l1.253-9.919 C241.645,299.334,239.582,298.956,237.572,298.442z" fill="inherit"/><path d="M225.916,293.826l-4.819,8.765c2.193,1.207,4.473,2.271,6.823,3.201l3.682-9.299 C229.644,295.718,227.743,294.832,225.916,293.826z" fill="inherit"/><path d="M262.448,298.442l2.488,9.689c2.455-0.627,4.841-1.42,7.164-2.339l-3.682-9.299 C266.482,297.259,264.493,297.92,262.448,298.442z" fill="inherit"/><path d="M284.236,286.448l6.845,7.29c1.832-1.721,3.565-3.546,5.169-5.483l-7.707-6.376 C287.207,283.493,285.763,285.014,284.236,286.448z" fill="inherit"/><path d="M274.103,293.826l4.819,8.765c2.209-1.216,4.329-2.572,6.357-4.047l-5.878-8.091 C277.711,291.683,275.944,292.812,274.103,293.826z" fill="inherit"/><path d="M250.01,300v10c2.549,0,5.054-0.177,7.519-0.485l-1.253-9.919C254.221,299.853,252.133,300,250.01,300z" fill="inherit"/><path d="M207.791,276.793l-8.444,5.358c1.351,2.126,2.821,4.17,4.421,6.103l7.707-6.376 C210.142,280.267,208.917,278.564,207.791,276.793z" fill="inherit"/><path d="M204.759,228.706l-9.05-4.259c-1.065,2.262-1.99,4.602-2.77,7.009l9.512,3.091 C203.101,232.542,203.871,230.591,204.759,228.706z" fill="inherit"/><path d="M215.783,286.448l-6.845,7.29c1.831,1.72,3.767,3.326,5.803,4.807l5.878-8.091 C218.922,289.219,217.308,287.881,215.783,286.448z" fill="inherit"/><path d="M200.897,240.631l-9.823-1.874c-0.462,2.443-0.779,4.937-0.936,7.476l9.979,0.628 C200.248,244.745,200.512,242.667,200.897,240.631z" fill="inherit"/><path d="M202.45,265.453l-9.512,3.091c0.78,2.406,1.705,4.747,2.77,7.009l9.05-4.259 C203.871,269.408,203.101,267.458,202.45,265.453z" fill="inherit"/><path d="M200.118,253.139l-9.979,0.628c0.157,2.539,0.473,5.033,0.936,7.476l9.823-1.874 C200.512,257.333,200.248,255.255,200.118,253.139z" fill="inherit"/><path d="M279.401,209.547l5.878-8.091c-2.028-1.475-4.148-2.831-6.357-4.047l-4.819,8.765 C275.944,207.187,277.711,208.317,279.401,209.547z" fill="inherit"/><path d="M256.275,200.404l1.253-9.919c-2.465-0.308-4.97-0.485-7.519-0.485v10 C252.133,200,254.221,200.147,256.275,200.404z" fill="inherit"/><path d="M268.418,203.507l3.682-9.299c-2.323-0.919-4.709-1.712-7.164-2.339l-2.488,9.688 C264.493,202.08,266.482,202.741,268.418,203.507z" fill="inherit"/><path d="M243.744,200.404l-1.253-9.919c-2.519,0.314-4.995,0.768-7.407,1.385l2.488,9.688 C239.582,201.044,241.645,200.666,243.744,200.404z" fill="inherit"/><path d="M207.791,223.207c1.126-1.772,2.35-3.475,3.684-5.086l-7.707-6.376c-1.601,1.933-3.07,3.976-4.421,6.103 L207.791,223.207z" fill="inherit"/><path d="M220.619,209.547l-5.878-8.091c-2.036,1.481-3.972,3.087-5.803,4.807l6.845,7.29 C217.309,212.119,218.922,210.781,220.619,209.547z" fill="inherit"/><path d="M231.602,203.507l-3.682-9.299c-2.349,0.93-4.63,1.994-6.823,3.201l4.819,8.765 C227.743,205.168,229.644,204.282,231.602,203.507z" fill="inherit"/><path d="M300.01,250c0,1.055-0.044,2.1-0.108,3.139l9.979,0.628c0.077-1.247,0.129-2.5,0.129-3.767 s-0.052-2.52-0.129-3.767l-9.979,0.628C299.966,247.9,300.01,248.945,300.01,250z" fill="inherit"/><path d="M292.228,276.793l8.444,5.358c1.344-2.115,2.564-4.315,3.639-6.599l-9.05-4.259 C294.365,273.197,293.348,275.03,292.228,276.793z" fill="inherit"/><path d="M297.569,265.453l9.512,3.091c0.769-2.372,1.392-4.809,1.864-7.301l-9.823-1.874 C298.729,261.445,298.21,263.476,297.569,265.453z" fill="inherit"/><path d="M299.122,240.631l9.823-1.874c-0.472-2.492-1.095-4.929-1.864-7.301l-9.512,3.091 C298.21,236.524,298.729,238.555,299.122,240.631z" fill="inherit"/><path d="M288.544,218.122l7.707-6.376c-1.604-1.938-3.337-3.763-5.169-5.484l-6.845,7.29 C285.763,214.986,287.207,216.507,288.544,218.122z" fill="inherit"/><path d="M295.261,228.706l9.05-4.259c-1.075-2.284-2.295-4.484-3.639-6.599l-8.444,5.359 C293.348,224.97,294.365,226.803,295.261,228.706z" fill="inherit"/><path d="M235.283,287.194l-3.682,9.299c1.936,0.766,3.924,1.427,5.97,1.949l2.488-9.688 C238.423,288.336,236.832,287.807,235.283,287.194z" fill="inherit"/><path d="M255.022,289.677l1.253,9.919c2.099-0.262,4.162-0.64,6.172-1.154l-2.488-9.688 C258.352,289.165,256.702,289.467,255.022,289.677z" fill="inherit"/><path d="M244.997,289.677l-1.253,9.919c2.054,0.256,4.142,0.404,6.265,0.404v-10 C248.311,290,246.64,289.882,244.997,289.677z" fill="inherit"/><path d="M280.837,275.503l7.707,6.376c1.334-1.611,2.558-3.314,3.684-5.086l-8.444-5.358 C282.883,272.852,281.904,274.214,280.837,275.503z" fill="inherit"/><path d="M264.736,287.194l3.682,9.299c1.958-0.775,3.858-1.661,5.686-2.667l-4.819-8.765 C267.823,285.865,266.302,286.574,264.736,287.194z" fill="inherit"/><path d="M210.01,250c0-0.844,0.035-1.68,0.086-2.511l-9.978-0.628c-0.064,1.039-0.108,2.084-0.108,3.139 s0.044,2.1,0.108,3.139l9.978-0.628C210.045,251.68,210.01,250.844,210.01,250z" fill="inherit"/><path d="M210.72,257.495l-9.822,1.874c0.393,2.077,0.912,4.107,1.553,6.084l9.512-3.091 C211.45,260.781,211.034,259.156,210.72,257.495z" fill="inherit"/><path d="M211.962,237.638l-9.512-3.091c-0.641,1.977-1.16,4.008-1.553,6.084l9.822,1.874 C211.034,240.844,211.449,239.219,211.962,237.638z" fill="inherit"/><path d="M226.497,282.363l-5.878,8.091c1.69,1.229,3.456,2.359,5.298,3.373l4.819-8.765 C229.262,284.25,227.849,283.346,226.497,282.363z" fill="inherit"/><path d="M219.182,275.503l-7.707,6.376c1.337,1.615,2.781,3.135,4.307,4.57l6.845-7.29 C221.407,278.011,220.252,276.794,219.182,275.503z" fill="inherit"/><path d="M213.809,267.035l-9.05,4.259c0.896,1.903,1.913,3.737,3.033,5.499l8.444-5.358 C215.339,270.024,214.526,268.557,213.809,267.035z" fill="inherit"/><path d="M273.522,282.363l5.878,8.091c1.696-1.234,3.31-2.572,4.836-4.005l-6.845-7.29 C276.171,280.305,274.88,281.375,273.522,282.363z" fill="inherit"/><path d="M250.01,210v-10c-2.124,0-4.212,0.147-6.265,0.404l1.253,9.919C246.64,210.118,248.311,210,250.01,210z" fill="inherit"/><path d="M240.059,211.246l-2.488-9.688c-2.046,0.523-4.034,1.183-5.97,1.949l3.682,9.299 C236.832,212.193,238.423,211.664,240.059,211.246z" fill="inherit"/><path d="M259.96,211.246l2.488-9.688c-2.01-0.514-4.073-0.892-6.172-1.154l-1.253,9.919 C256.702,210.533,258.352,210.835,259.96,211.246z" fill="inherit"/><path d="M213.809,232.965c0.717-1.523,1.53-2.989,2.426-4.399l-8.444-5.359c-1.12,1.762-2.137,3.596-3.033,5.499 L213.809,232.965z" fill="inherit"/><path d="M286.21,267.035l9.05,4.259c0.888-1.885,1.658-3.835,2.308-5.841l-9.512-3.091 C287.537,263.967,286.92,265.527,286.21,267.035z" fill="inherit"/><path d="M230.735,214.939l-4.819-8.765c-1.841,1.013-3.608,2.143-5.298,3.373l5.878,8.091 C227.849,216.654,229.262,215.75,230.735,214.939z" fill="inherit"/><path d="M222.628,220.842l-6.845-7.29c-1.527,1.434-2.971,2.955-4.307,4.57l7.707,6.376 C220.252,223.206,221.407,221.989,222.628,220.842z" fill="inherit"/><path d="M289.923,247.489l9.978-0.628c-0.131-2.116-0.394-4.194-0.78-6.23l-9.822,1.874 C289.608,244.134,289.819,245.796,289.923,247.489z" fill="inherit"/><path d="M288.057,237.638l9.512-3.091c-0.65-2.005-1.421-3.956-2.308-5.841l-9.05,4.259 C286.92,234.473,287.537,236.033,288.057,237.638z" fill="inherit"/><path d="M289.3,257.495l9.822,1.874c0.385-2.036,0.649-4.114,0.78-6.23l-9.978-0.628 C289.819,254.204,289.608,255.866,289.3,257.495z" fill="inherit"/><path d="M283.784,228.566l8.444-5.359c-1.126-1.772-2.35-3.475-3.684-5.086l-7.707,6.376 C281.904,225.786,282.883,227.148,283.784,228.566z" fill="inherit"/><path d="M277.391,220.842l6.845-7.29c-1.526-1.433-3.139-2.771-4.836-4.005l-5.878,8.091 C274.88,218.625,276.171,219.695,277.391,220.842z" fill="inherit"/><path d="M269.284,214.939l4.819-8.765c-1.827-1.006-3.728-1.892-5.686-2.667l-3.682,9.299 C266.302,213.425,267.823,214.135,269.284,214.939z" fill="inherit"/><path d="M235.554,276.296l-4.819,8.765c1.462,0.805,2.982,1.514,4.548,2.134l3.682-9.299 C237.79,277.431,236.65,276.899,235.554,276.296z" fill="inherit"/><path d="M257.472,279.065l2.488,9.688c1.637-0.418,3.228-0.947,4.776-1.559l-3.682-9.299 C259.893,278.355,258.7,278.752,257.472,279.065z" fill="inherit"/><path d="M242.547,279.065l-2.488,9.688c1.608,0.411,3.258,0.713,4.938,0.923l1.253-9.919 C244.991,279.6,243.753,279.374,242.547,279.065z" fill="inherit"/><path d="M250.01,280v10c1.699,0,3.369-0.118,5.012-0.323l-1.253-9.919C252.537,279.912,251.284,280,250.01,280z" fill="inherit"/><path d="M264.466,276.296l4.819,8.765c1.473-0.811,2.886-1.714,4.238-2.698l-5.878-8.091 C266.63,275.01,265.57,275.687,264.466,276.296z" fill="inherit"/><path d="M275.341,266.076l8.444,5.359c0.896-1.41,1.709-2.877,2.426-4.399l-9.05-4.259 C276.623,263.918,276.013,265.018,275.341,266.076z" fill="inherit"/><path d="M270.546,271.869l6.845,7.29c1.221-1.147,2.376-2.364,3.446-3.656l-7.707-6.376 C272.328,270.096,271.462,271.008,270.546,271.869z" fill="inherit"/><path d="M220.542,244.379l-9.822-1.874c-0.308,1.629-0.519,3.291-0.624,4.984l9.978,0.628 C220.153,246.847,220.311,245.6,220.542,244.379z" fill="inherit"/><path d="M220.074,251.883l-9.978,0.628c0.105,1.692,0.315,3.355,0.624,4.984l9.822-1.874 C220.311,254.4,220.153,253.153,220.074,251.883z" fill="inherit"/><path d="M229.474,271.869l-6.845,7.29c1.22,1.146,2.511,2.217,3.869,3.204l5.878-8.091 C231.357,273.532,230.389,272.728,229.474,271.869z" fill="inherit"/><path d="M221.474,259.272l-9.512,3.091c0.52,1.604,1.137,3.164,1.847,4.672l9.05-4.259 C222.327,261.645,221.864,260.475,221.474,259.272z" fill="inherit"/><path d="M224.679,266.076l-8.444,5.359c0.901,1.417,1.88,2.78,2.947,4.069l7.707-6.376 C226.089,268.16,225.354,267.139,224.679,266.076z" fill="inherit"/><path d="M221.474,240.728c0.39-1.203,0.852-2.373,1.385-3.504l-9.05-4.259c-0.71,1.508-1.327,3.068-1.847,4.672 L221.474,240.728z" fill="inherit"/><path d="M246.25,220.242l-1.253-9.919c-1.68,0.21-3.33,0.512-4.938,0.923l2.488,9.688 C243.753,220.626,244.991,220.4,246.25,220.242z" fill="inherit"/><path d="M238.965,222.104l-3.682-9.299c-1.566,0.62-3.087,1.329-4.548,2.134l4.819,8.765 C236.65,223.101,237.79,222.569,238.965,222.104z" fill="inherit"/><path d="M253.769,220.242l1.253-9.919c-1.643-0.205-3.313-0.323-5.012-0.323v10 C251.284,220,252.537,220.088,253.769,220.242z" fill="inherit"/><path d="M261.054,222.104l3.682-9.299c-1.548-0.613-3.139-1.141-4.776-1.559l-2.488,9.688 C258.7,221.248,259.893,221.645,261.054,222.104z" fill="inherit"/><path d="M278.545,259.272l9.512,3.091c0.513-1.582,0.928-3.206,1.243-4.867l-9.822-1.874 C279.241,256.867,278.93,258.086,278.545,259.272z" fill="inherit"/><path d="M226.889,230.873l-7.707-6.376c-1.067,1.289-2.046,2.651-2.947,4.069l8.444,5.359 C225.354,232.861,226.089,231.84,226.889,230.873z" fill="inherit"/><path d="M232.375,225.728l-5.878-8.091c-1.357,0.987-2.648,2.058-3.869,3.204l6.845,7.29 C230.389,227.271,231.357,226.468,232.375,225.728z" fill="inherit"/><path d="M279.477,244.379l9.822-1.874c-0.314-1.661-0.73-3.286-1.243-4.867l-9.512,3.091 C278.93,241.914,279.241,243.133,279.477,244.379z" fill="inherit"/><path d="M280.01,250c0,0.633-0.026,1.26-0.065,1.883l9.978,0.628c0.051-0.831,0.086-1.667,0.086-2.511 s-0.035-1.68-0.086-2.511l-9.978,0.628C279.984,248.74,280.01,249.367,280.01,250z" fill="inherit"/><path d="M273.13,230.873l7.707-6.376c-1.069-1.292-2.224-2.508-3.446-3.656l-6.845,7.29 C271.462,228.992,272.328,229.904,273.13,230.873z" fill="inherit"/><path d="M267.644,225.728l5.878-8.091c-1.352-0.983-2.765-1.887-4.238-2.698l-4.819,8.765 C265.57,224.312,266.63,224.99,267.644,225.728z" fill="inherit"/><path d="M277.16,237.224l9.05-4.259c-0.717-1.523-1.53-2.989-2.426-4.399l-8.444,5.359 C276.013,234.982,276.623,236.082,277.16,237.224z" fill="inherit"/><path d="M252.514,269.827l1.255,9.931c1.26-0.157,2.498-0.384,3.703-0.692l-2.494-9.712 C254.175,269.559,253.355,269.722,252.514,269.827z" fill="inherit"/><path d="M247.505,269.827l-1.255,9.931c1.232,0.154,2.485,0.242,3.759,0.242v-10 C249.159,270,248.327,269.93,247.505,269.827z" fill="inherit"/><path d="M257.369,268.587l3.686,9.309c1.175-0.465,2.315-0.997,3.411-1.6l-4.82-8.768 C258.915,267.93,258.152,268.277,257.369,268.587z" fill="inherit"/><path d="M242.651,268.587l-3.686,9.309c1.161,0.46,2.355,0.856,3.582,1.17l2.494-9.712 C244.223,269.145,243.424,268.893,242.651,268.587z" fill="inherit"/><path d="M261.756,266.168l5.888,8.104c1.018-0.74,1.986-1.544,2.901-2.403l-6.856-7.3 C263.08,265.141,262.435,265.674,261.756,266.168z" fill="inherit"/><path d="M268.092,258.509l9.068,4.267c0.533-1.131,0.995-2.301,1.385-3.504l-9.517-3.092 C268.768,256.982,268.448,257.755,268.092,258.509z" fill="inherit"/><path d="M265.423,262.751l7.707,6.376c0.8-0.967,1.535-1.988,2.211-3.051l-8.455-5.366 C266.435,261.418,265.956,262.107,265.423,262.751z" fill="inherit"/><path d="M230.01,250c0-0.424,0.037-0.837,0.063-1.254l-9.999-0.629c-0.039,0.623-0.065,1.25-0.065,1.883 s0.026,1.26,0.065,1.883l9.999-0.629C230.047,250.837,230.01,250.424,230.01,250z" fill="inherit"/><path d="M230.372,253.746l-9.83,1.875c0.236,1.246,0.547,2.464,0.932,3.651l9.517-3.092 C230.735,255.389,230.529,254.577,230.372,253.746z" fill="inherit"/><path d="M231.927,258.509l-9.068,4.267c0.538,1.142,1.148,2.242,1.82,3.299l8.455-5.366 C232.686,260.005,232.285,259.27,231.927,258.509z" fill="inherit"/><path d="M238.263,266.168l-5.888,8.104c1.014,0.738,2.074,1.415,3.179,2.024l4.82-8.768 C239.637,267.122,238.939,266.66,238.263,266.168z" fill="inherit"/><path d="M234.597,262.751l-7.707,6.376c0.802,0.969,1.668,1.881,2.584,2.742l6.856-7.3 C235.719,263.995,235.131,263.397,234.597,262.751z" fill="inherit"/><path d="M254.979,230.646l2.494-9.712c-1.206-0.308-2.444-0.535-3.703-0.692l-1.255,9.931 C253.355,230.278,254.175,230.441,254.979,230.646z" fill="inherit"/><path d="M250.01,230v-10c-1.274,0-2.527,0.088-3.759,0.242l1.255,9.931C248.327,230.07,249.159,230,250.01,230z" fill="inherit"/><path d="M240.374,232.472l-4.82-8.768c-1.105,0.608-2.164,1.286-3.179,2.024l5.888,8.104 C238.939,233.34,239.637,232.878,240.374,232.472z" fill="inherit"/><path d="M245.04,230.646l-2.494-9.712c-1.227,0.314-2.421,0.71-3.582,1.17l3.686,9.309 C243.424,231.107,244.223,230.855,245.04,230.646z" fill="inherit"/><path d="M269.647,253.746l9.83,1.875c0.231-1.221,0.389-2.469,0.468-3.738l-9.999-0.629 C269.894,252.099,269.801,252.933,269.647,253.746z" fill="inherit"/><path d="M233.134,239.29l-8.455-5.366c-0.672,1.057-1.282,2.157-1.82,3.299l9.068,4.267 C232.285,240.73,232.686,239.995,233.134,239.29z" fill="inherit"/><path d="M236.329,235.432l-6.856-7.301c-0.916,0.86-1.782,1.773-2.584,2.742l7.707,6.376 C235.131,236.603,235.719,236.005,236.329,235.432z" fill="inherit"/><path d="M230.372,246.254c0.157-0.831,0.363-1.643,0.62-2.433l-9.517-3.092c-0.385,1.186-0.696,2.404-0.932,3.651 L230.372,246.254z" fill="inherit"/><path d="M269.028,243.821l9.517-3.092c-0.39-1.203-0.852-2.373-1.385-3.504l-9.068,4.267 C268.448,242.245,268.768,243.018,269.028,243.821z" fill="inherit"/><path d="M269.946,248.746l9.999-0.629c-0.078-1.269-0.237-2.516-0.468-3.738l-9.83,1.875 C269.801,247.067,269.894,247.901,269.946,248.746z" fill="inherit"/><path d="M259.646,232.472l4.82-8.768c-1.096-0.603-2.237-1.135-3.411-1.6l-3.686,9.309 C258.152,231.723,258.915,232.07,259.646,232.472z" fill="inherit"/><path d="M263.69,235.432l6.856-7.301c-0.915-0.86-1.884-1.663-2.901-2.403l-5.888,8.104 C262.435,234.326,263.08,234.859,263.69,235.432z" fill="inherit"/><path d="M266.886,239.29l8.455-5.366c-0.676-1.063-1.41-2.085-2.211-3.051l-7.707,6.376 C265.956,237.893,266.435,238.582,266.886,239.29z" fill="inherit"/></g></svg>