<?xml version="1.0" encoding="UTF-8" standalone="no"?><svg xmlns="http://www.w3.org/2000/svg" xmlns:xlink="http://www.w3.org/1999/xlink" fill="#000000" height="500" preserveAspectRatio="xMidYMid meet" version="1" viewBox="0.1 0.0 499.8 500.0" width="499.8" zoomAndPan="magnify"><g id="change1_1"><path d="M257.383,228.964c-0.458-0.161-0.924-0.306-1.395-0.437c11.084-42.217,18.031-86.06-0.134-139.749 c-8.576-26.159-23.189-54.684-44.444-85.812c5.148-0.798,10.352-1.425,15.599-1.904c19.697,32.537,32.502,61.812,39.466,88.321 C281.331,144.378,271.341,187.611,257.383,228.964z M324.515,11.296c-5.435-1.695-10.955-3.198-16.543-4.525 c28.925,118.714-4.3,175.512-43.987,225.873c0.429,0.346,0.844,0.708,1.246,1.084C308.307,186.196,345.139,131.514,324.515,11.296z M390.914,172.181c18.569-20.707,36.023-47.837,52.502-80.579c-3.848-4.693-7.861-9.243-12.034-13.642 c-13.898,34.248-29.258,62.531-46.166,84.499c-33.596,44.95-73.389,64.625-114.271,79.888c0.171,0.468,0.321,0.945,0.461,1.427 C313.233,231.34,354.268,214.391,390.914,172.181z M144.247,128.159c-24.097-13.271-54.221-24.157-90.997-32.413 c-3.806,4.848-7.432,9.842-10.878,14.968c37.698,5.246,68.492,13.788,93.451,25.116c52.045,23.191,79.26,58.235,102.516,95.169 c0.412-0.253,0.834-0.492,1.263-0.718C218.938,191.838,194.145,155.034,144.247,128.159z M364.097,135.748 c11.31-24.965,19.832-55.762,25.052-93.466c-5.076-3.407-10.285-6.631-15.616-9.667c-2.175,38.34-8.338,69.628-17.674,95.306 c-19.323,53.909-52.431,83.442-87.668,109.2c0.278,0.392,0.546,0.79,0.798,1.2C305.91,215.044,340.939,187.81,364.097,135.748z M378.825,153.096c15.13-23.102,28.287-52.39,39.427-88.004c-4.559-4.151-9.273-8.135-14.131-11.944 c-8.229,36.784-19.095,66.914-32.348,91.018c-26.842,49.918-63.632,74.734-102.061,95.422c0.231,0.437,0.446,0.883,0.649,1.336 C310.114,222.916,348.494,200.625,378.825,153.096z M357.524,24.251c-5.379-2.567-10.863-4.949-16.447-7.135 c11.731,120.615-28.288,173.405-74.744,217.719c0.336,0.361,0.66,0.733,0.972,1.116 C317.073,195.254,359.963,144.101,357.524,24.251z M258.955,0.177C255.981,0.072,252.999,0,250,0c-2.399,0-4.787,0.042-7.169,0.109 c17.982,33.88,28.924,63.814,34.245,90.598c11.415,56.081-1.574,98.486-18.349,138.774c0.45,0.192,0.89,0.402,1.324,0.622 C289.626,173.04,308.623,109.076,258.955,0.177z M182.281,104.046c-19.339-20.092-45.177-39.511-76.348-58.377 c-4.866,3.437-9.602,7.044-14.203,10.812c32.728,16.501,59.846,33.971,80.542,52.554c42.187,36.672,59.113,77.718,71.523,119.553 c0.496-0.143,0.998-0.272,1.508-0.382C235.763,185.628,221.635,143.529,182.281,104.046z M162.548,114.73 c-21.953-16.927-50.221-32.311-84.451-46.24c-4.456,4.221-8.759,8.602-12.895,13.139c35.603,11.164,64.884,24.339,87.978,39.484 c47.51,30.359,69.782,68.752,87.771,108.514c0.453-0.202,0.911-0.394,1.38-0.565C227.104,188.168,207.463,148.361,162.548,114.73z M202.895,96.193c-16.408-22.612-39.359-45.437-67.488-68.432c-5.058,2.613-10.018,5.388-14.867,8.329 c29.623,21.027,54.066,42.236,71.968,63.675c36.454,42.076,47.704,85.04,54.33,128.169c0.518-0.074,1.043-0.127,1.572-0.165 C244.723,184.288,236.412,140.653,202.895,96.193z M245.217,88.876C235.05,63.17,218.685,35.511,196.009,5.864 C190.849,7,185.747,8.287,180.712,9.736c24.035,28.11,42.116,54.784,53.869,79.93c24.491,50.512,23.702,94.923,18.497,138.257 c0.492,0.068,0.981,0.148,1.463,0.247C262.705,185.296,266.581,141.063,245.217,88.876z M291.501,3.448 c-5.4-0.902-10.854-1.645-16.366-2.196c43.518,112.927,19.154,174.474-13.778,229.565c0.447,0.266,0.885,0.546,1.311,0.841 C298.974,178.796,328.075,119.688,291.501,3.448z M234.848,233.653c-44.284-46.486-97.06-86.532-217.675-74.882 c-2.131,5.435-4.079,10.962-5.833,16.575c116.724-19.94,171.672,14.209,218.233,55.68c1.5,1.128,2.993,2.263,4.48,3.402 C234.312,234.164,234.577,233.905,234.848,233.653z M251.537,227.766c2.243-43.586-0.033-87.949-27.572-136.617 c-13.32-24.453-33.074-50.002-58.431-76.505c-5.115,1.836-10.149,3.836-15.103,5.99c26.708,24.808,48.088,49.077,62.963,72.689 c30.541,46.651,35.856,90.752,36.581,134.384c0.008,0,0.017-0.001,0.025-0.001C250.517,227.707,251.029,227.731,251.537,227.766z M227.707,249.988c-43.634,0.705-87.74,5.999-134.408,36.52c-23.62,14.864-47.901,36.233-72.722,62.931 c2.21,5.092,4.576,10.1,7.108,15.009C50.7,336.334,73.541,313.4,96.163,297.007c44.482-33.485,88.122-41.765,131.606-45.421 c-0.037-0.525-0.062-1.052-0.062-1.586C227.707,249.996,227.707,249.992,227.707,249.988z M269.898,260.049 c-0.222,0.439-0.457,0.87-0.706,1.291c55.109,32.903,116.676,57.223,229.568,13.648c0.531-5.347,0.881-10.746,1.069-16.186 C390.971,308.528,326.981,289.59,269.898,260.049z M265.138,266.36c44.217,46.552,96.958,86.656,217.57,75.182 c2.137-5.429,4.084-10.952,5.845-16.559c-120.24,20.375-174.863-16.553-222.307-59.725 C265.888,265.638,265.52,266.006,265.138,266.36z M396.624,318.388c27.076,1.67,58.67-1.185,96.595-10.375 c1.304-5.488,2.423-11.047,3.358-16.669c-116.212,36.646-175.345,7.589-228.232-28.683c-0.248,0.359-0.508,0.709-0.776,1.052 C301.781,290.779,338.961,314.843,396.624,318.388z M406.654,213.297c23.603-14.892,47.858-36.291,72.647-63.015 c-2.216-5.088-4.589-10.092-7.127-14.998c-22.981,28.138-45.794,51.098-68.397,67.515c-44.441,33.534-88.07,41.865-131.55,45.57 c0.039,0.534,0.065,1.071,0.065,1.614C315.925,249.223,360.024,243.873,406.654,213.297z M409.308,276.978 c26.782-5.337,56.71-16.295,90.577-34.293c-0.153-5.314-0.481-10.584-0.96-15.811c-32.526,19.709-61.794,32.527-88.3,39.503 c-54.983,14.881-98.219,4.912-139.579-9.025c-0.161,0.46-0.331,0.915-0.521,1.361C310.824,275.462,353.237,288.424,409.308,276.978 z M410.322,234.482c25.141-11.768,51.805-29.864,79.901-53.911c-1.481-5.132-3.123-10.194-4.918-15.184 c-26.486,25.371-52.023,45.144-76.469,58.481c-48.649,27.571-93.012,29.881-136.6,27.671c-0.035,0.513-0.087,1.022-0.156,1.525 C315.416,258.241,359.827,259.001,410.322,234.482z M400.198,192.413c21.428-17.918,42.62-42.376,63.627-72.016 c-3.03-4.989-6.235-9.859-9.596-14.611c-18.842,31.191-38.24,57.046-58.318,76.402c-39.454,39.389-81.544,53.55-124.116,63.125 c0.107,0.501,0.197,1.008,0.27,1.521C315.19,240.178,358.147,228.898,400.198,192.413z M411.224,255.756 c26.154-8.59,54.672-23.219,85.786-44.487c-0.808-5.195-1.786-10.333-2.909-15.417c-29.63,22.694-57.279,39.079-82.98,49.266 c-52.172,21.404-96.412,17.565-139.295,9.437c-0.1,0.48-0.219,0.952-0.349,1.42C313.701,267.031,357.549,273.951,411.224,255.756z M233.328,410.598c6.932,26.515,19.703,55.803,39.369,88.366c5.247-0.472,10.452-1.09,15.6-1.881 c-21.225-31.156-35.804-59.697-44.348-85.863c-18.102-53.716-11.093-97.548,0.049-139.751c-0.474-0.132-0.941-0.278-1.401-0.44 C228.584,312.364,218.536,355.582,233.328,410.598z M240.737,499.812c3.075,0.112,6.16,0.188,9.263,0.188 c2.302,0,4.595-0.036,6.882-0.098c-17.953-33.905-28.862-63.852-34.155-90.642c-11.355-56.1,1.686-98.49,18.508-138.758 c-0.441-0.189-0.872-0.395-1.297-0.61C210.294,326.916,191.185,390.83,240.737,499.812z M208.189,496.5 c5.402,0.91,10.857,1.663,16.371,2.22c-43.395-112.999-18.935-174.499,14.062-229.55c-0.446-0.265-0.881-0.546-1.306-0.841 C200.943,321.146,171.756,380.205,208.189,496.5z M142.179,475.611c5.384,2.578,10.872,4.971,16.461,7.166 c-11.595-120.622,28.47-173.397,74.973-217.667c-0.326-0.354-0.641-0.718-0.944-1.093 C182.845,304.65,139.906,355.78,142.179,475.611z M254.586,411.134c10.141,25.715,26.477,53.389,49.13,83.062 c5.152-1.128,10.248-2.403,15.275-3.843c-24.006-28.143-42.051-54.839-53.77-79.998c-24.422-50.546-23.566-94.951-18.296-138.277 c-0.51-0.07-1.016-0.154-1.514-0.259C237.2,314.685,233.273,358.917,254.586,411.134z M175.171,488.603 c5.436,1.703,10.955,3.215,16.544,4.55c-28.77-118.749,4.529-175.503,44.282-225.811c-0.429-0.347-0.843-0.71-1.245-1.087 C191.611,313.728,154.715,368.37,175.171,488.603z M337.274,385.382c21.928,16.96,50.173,32.386,84.372,46.366 c4.456-4.21,8.759-8.579,12.896-13.103c-35.57-11.226-64.827-24.45-87.893-39.634c-47.45-30.432-69.658-68.856-87.581-108.647 c-0.463,0.207-0.932,0.403-1.411,0.578C272.827,311.857,292.413,351.69,337.274,385.382z M355.59,371.977 c24.082,13.304,54.195,24.23,90.953,32.537c3.809-4.838,7.443-9.821,10.892-14.937c-37.685-5.305-68.468-13.893-93.412-25.258 c-52.005-23.263-79.173-58.343-102.379-95.307c-0.42,0.258-0.851,0.5-1.29,0.73C280.976,308.207,305.73,345.041,355.59,371.977z M127.991,144.062c-25.672-9.355-56.956-15.541-95.292-17.745c-2.98,5.225-5.778,10.567-8.384,16.02 c119.845-2.368,170.992,40.544,211.666,90.334c0.372-0.302,0.756-0.589,1.147-0.867 C211.394,196.55,181.884,163.423,127.991,144.062z M275.838,408.884c13.296,24.466,33.023,50.036,58.359,76.567 c5.115-1.829,10.152-3.821,15.107-5.969c-26.688-24.836-48.044-49.129-62.895-72.757c-30.497-46.688-35.767-90.798-36.448-134.433 c-0.523-0.001-1.039-0.026-1.553-0.062C246.119,315.814,248.347,360.183,275.838,408.884z M317.529,396.04 c19.31,20.12,45.12,39.574,76.259,58.484c4.868-3.428,9.606-7.027,14.21-10.786c-32.695-16.55-59.787-34.061-80.455-52.675 c-42.129-36.73-58.996-77.798-71.347-119.65c-0.498,0.144-1.002,0.273-1.513,0.383C264.164,314.388,278.233,356.505,317.529,396.04 z M296.91,403.867c16.381,22.632,39.304,45.487,67.407,68.517c5.058-2.605,10.016-5.378,14.866-8.311 c-29.594-21.064-54.01-42.304-71.884-63.766c-36.4-42.121-47.597-85.099-54.169-128.237c-0.518,0.073-1.042,0.126-1.571,0.163 C255.191,315.719,263.448,359.365,296.91,403.867z M88.78,244.047c-26.162,8.561-54.696,23.158-85.838,44.399 c0.801,5.192,1.776,10.327,2.892,15.409c29.66-22.666,57.326-39.016,83.036-49.171c52.202-21.34,96.435-17.439,139.306-9.252 c0.101-0.484,0.222-0.961,0.354-1.434C186.321,232.888,142.482,225.912,88.78,244.047z M90.724,222.826 c-26.787,5.306-56.727,16.23-90.62,34.196c0.147,5.313,0.472,10.581,0.945,15.806c32.552-19.677,61.834-32.46,88.345-39.403 c55.004-14.814,98.225-4.787,139.566,9.207c0.162-0.464,0.336-0.922,0.528-1.371C189.209,224.461,146.814,211.444,90.724,222.826z M371.868,356.096c25.659,9.394,56.936,15.626,95.263,17.89c2.989-5.224,5.796-10.565,8.41-16.016 c-119.821,2.189-170.938-40.776-211.538-90.629c-0.371,0.3-0.753,0.586-1.143,0.862C288.546,303.493,318.01,336.66,371.868,356.096 z M6.831,191.781c-1.3,5.451-2.419,10.973-3.356,16.556c116.267-36.495,175.345-7.346,228.181,28.999 c0.285-0.411,0.584-0.812,0.895-1.203C182.27,196.354,125.558,163.042,6.831,191.781z M1.266,224.716 c-0.537,5.344-0.889,10.742-1.084,16.18c108.938-49.616,172.882-30.569,229.929-0.964c0.225-0.443,0.462-0.879,0.715-1.305 C175.754,205.665,114.228,181.256,1.266,224.716z M135.756,364.102c-11.346,24.951-19.911,55.739-25.187,93.43 c5.069,3.412,10.27,6.641,15.593,9.682c2.235-38.331,8.445-69.612,17.82-95.277c19.4-53.874,52.548-83.36,87.82-109.068 c-0.281-0.397-0.553-0.8-0.808-1.216C194.045,284.885,158.983,312.077,135.756,364.102z M108.985,327.636 c-18.598,20.682-36.089,47.786-52.614,80.497c3.835,4.69,7.835,9.238,11.995,13.635c13.956-34.212,29.362-62.467,46.307-84.406 c33.664-44.885,73.484-64.495,114.389-79.69c-0.177-0.482-0.331-0.975-0.475-1.472 C186.744,268.581,145.687,285.478,108.985,327.636z M121.05,346.735c-15.165,23.079-28.365,52.347-39.56,87.932 c4.553,4.157,9.257,8.152,14.108,11.967c8.289-36.763,19.201-66.877,32.493-90.962c26.914-49.869,63.736-74.632,102.195-95.264 c-0.233-0.44-0.449-0.889-0.653-1.345C189.856,277.018,151.447,299.256,121.05,346.735z M99.729,307.395 c-21.451,17.888-42.676,42.316-63.721,71.924c3.019,4.986,6.212,9.854,9.562,14.603c18.889-31.153,38.326-56.976,58.432-76.299 c39.511-39.324,81.619-53.42,124.205-62.928c-0.109-0.51-0.201-1.026-0.274-1.548C184.799,259.746,141.828,270.969,99.729,307.395z M89.656,265.32c-25.153,11.738-51.837,29.802-79.963,53.824c1.472,5.126,3.111,10.181,4.896,15.167 c26.521-25.34,52.082-45.074,76.543-58.376c48.686-27.501,93.049-29.742,136.632-27.464c0.036-0.525,0.088-1.044,0.16-1.558 C184.594,241.679,140.185,240.86,89.656,265.32z" fill="#2273f3"/></g></svg>